<svg xmlns="http://www.w3.org/2000/svg" style="isolation:isolate" viewBox="759.5 360.8 100.3 103.2"><path d="M760.3 429.4l40.6-23.2c1-.6 2.8-.6 3.9 0l54.2 32c1 .5 1 1.5 0 2.2l-40.6 23.2c-1 .6-2.8.6-3.9 0l-54.2-32c-1-.6-1-1.6 0-2.2z" opacity=".1"/><path d="M770 427.2l41.2 24.1 34.4-19.7-41.1-24.1-34.5 19.7z" fill="#42E8CF"/><path d="M765.2 427.3l.2.2c0 .1 0 .2.2.3l.1.1.2.1 48.4 28.5v2.4L766 430.6l-.2-.1-.1-.1-.2-.2v-.2h-.1v-.1-.1l-.1-.2v-2.4.2z" fill="#C3C5C5"/><path d="M802.1 405.3c1-.5 2.5-.5 3.5 0l48.4 28.5c1 .6 1 1.4 0 2l-36.2 20.7c-1 .5-2.5.5-3.5 0L766 428c-1-.5-1-1.4 0-2l36.2-20.7zm9 46l34.5-19.7-41.1-24.1-34.5 19.7 41.2 24.1zm23.7-7.1c1-.6 1-1.5 0-2a4 4 0 00-3.5-.1c-1 .6-1 1.5 0 2a4 4 0 003.5 0z" fill="#E6E7EC"/><path d="M814.3 456.5l.5.2h.2l.2.1h1.8l.4-.1.4-.2 36.2-20.7c.5-.3.8-.6.8-1v2.5c0 .3-.3.7-.8 1L817.8 459l-.3.1h-.1l-.2.1h-.2v.1h-.3H816.4h-.7H815.3h-.4-.1v-.1l-.5-.2v-2.5z" fill="#C3C5C5"/><path d="M779 429.2l39.6 23 29-16.8-39.5-23-29 16.8z" opacity=".1"/><path d="M801.1 408.5l46.7 27.2L816 454l-46.7-27.2 31.8-18.4z" fill="#FFF" opacity=".3"/><path d="M801.1 404.3l46.7 27.2-31.8 18.3-46.7-27.1 31.8-18.4z" fill="#FFF" opacity=".3"/><path d="M801.1 400.1l46.7 27.2-31.8 18.3-46.7-27.1 31.8-18.4z" fill="#FFF" opacity=".2"/><path d="M801.1 395.9l46.7 27.2-31.8 18.3-46.7-27.1 31.8-18.4z" fill="#FFF" opacity=".1"/><path d="M801.1 391.7l46.7 27.2-31.8 18.3-46.7-27.1 31.8-18.4z" fill="#FFF" opacity=".1"/><path d="M801.1 387.5l46.7 27.1L816 433l-46.7-27.1 31.8-18.4z" fill="#FFF" opacity=".1"/><path d="M835.6 443c0 1-1.2 1.6-2.6 1.6-1.4 0-2.5-.7-2.5-1.5 0-.9 1.1-1.6 2.5-1.6s2.6.7 2.6 1.6z" fill="#42E8CF"/><path d="M781.7 425l1-.4-.1 1-.9-.6z" fill="#6E0095"/><path d="M782.8 418.1l-.2 7.4-2 .1v1.6l37.7 22v-10.4L782.8 418z" fill="#37034C"/><path d="M818.3 438.8V449l27-15.6V423l-27 15.6z" fill="#4D0169"/><path d="M818.3 440.6v7l26-15-.1-7-26 15z" fill="#A8A8A8"/><path d="M781.4 417.3l36.9 21.4 27-15.6-36.8-21.4-27.1 15.6z" fill="#6E0095"/><path d="M844.2 425.6l.1 7-.6-.3-.2-6.3.7-.4z" fill="#37034C"/><path d="M818.3 447.6l26-15-.6-.3-25.5 14.2.1 1.1z" fill="#6E0095"/><path d="M818.3 440.6l-35.6-20.3-.1 6 35.7 21.3v-7z" fill="#EBEBF0"/><path d="M818.3 447.6l-37.7-22 1.1-.6 36.6 21.5v1.1z" fill="#6E0095"/><path d="M781.4 417.3v2.1l1.3.9.3-2-1.6-1z" fill="#37034C"/><path d="M818.3 440.6l-35.7-15 .1-5.3 35.6 20.3z" fill="#E3E3E5"/><path d="M818.3 446.5l25.2-20.5-25.2 14.6v6z" fill="#939393"/><g><path d="M794.8 420.3l1.5.9 19-11-1.5-.9-19 11zM800 423.3l1.5.9 19-11-1.5-.9-19 11zM797.5 421.8l1.5 1 19-11-1.5-1-19 11zM792.3 418.8l1.5.9 19-11-1.5-.8-19 11z" fill="#B539DF"/></g><g><path d="M790.6 415l.8-.5-.1.8-.7-.4z" fill="#FACD00"/><path d="M791.5 409l-.2 6.4h-1.6v1.4l32 18.6v-8.8L791.4 409z" fill="#FCA922"/><path d="M821.6 426.6v8.8l23-13.3v-8.8l-23 13.3z" fill="#ED8001"/><path d="M821.6 428.1v6l22.2-12.8-.2-5.9-22 12.7z" fill="#A8A8A8"/><path d="M790.3 408.4l31.3 18.2 23-13.3-31.3-18.2-23 13.3zM843.6 415.4l.2 6-.6-.3-.1-5.3.5-.4z" fill="#FACD00"/><path d="M821.7 434.1l22-12.8-.5-.2-21.6 12v1z" fill="#FACD00"/><path d="M821.6 428.1L791.4 411l-.1 5 30.4 18.2v-6z" fill="#EBEBF0"/><path d="M821.7 434.1l-32-18.7.9-.5 31 18.3v1z" fill="#FACD00"/><path d="M790.3 408.4v1.8l1.1.7.2-1.8-1.3-.7z" fill="#FCA922"/><path d="M821.6 428.1l-30.3-12.8.1-4.4 30.2 17.2z" fill="#E3E3E5"/><path d="M821.6 433.2l21.5-17.4-21.5 12.3v5z" fill="#939393"/><path d="M801.7 410.9l1.3.7 16.1-9.3-1.3-.7-16.1 9.3zM806.1 413.4l1.3.8 16.1-9.3-1.3-.8-16.1 9.3zM804 412.2l1.3.8 16-9.4-1.2-.7-16.1 9.3zM799.5 409.6l1.3.8 16.2-9.3-1.3-.8-16.2 9.3z" fill="#ED8001"/></g><g opacity=".3"><path d="M837.4 385.2v.9l10 5.7v-.9l-10-5.7zM816.5 375.7v6.5l14.2 8.2v-6.6l-14.2-8.1z" fill="#FFF" opacity=".3"/><path d="M832 397.6l-16.6-9.6v-14.6l16.7 9.7v14.5zm-15.5-15.4l14.2 8.2v-6.6l-14.2-8.1v6.5zM815.5 370.8v1.1l16.6 9.6v-1l-16.6-9.7zM837.4 393.4v6.5l9.9 5.8v-6.5l-10-5.8z" fill="#FFF" opacity=".3"/><path d="M848.4 407.7l-12.7-7.4V378l12.7 7.3v22.4zm-11-7.8l9.9 5.8v-6.5l-10-5.8v6.5zm0-18.3l10 5.7v-1l-10-5.7v1zm0 4.5l10 5.7v-.9l-10-5.7v.9zm0 2l10 5.8v-1l-10-5.7v1zm0-4.5l10 5.8v-1l-10-5.7v1z" fill="#FFF" opacity=".3"/><path d="M849.7 409.6L813.9 389v-28l35.9 20.6-.1 28.1zm-14-9.3l12.7 7.4v-22.4l-12.7-7.3v22.3zM815.4 388l16.7 9.6V383l-16.6-9.6V388zm0-23l33.5 19.3V382l-33.4-19.3v2.4zm0 2.4l16.7 9.6v-1.1l-16.6-9.6v1zm0 2l16.7 9.7V378l-16.6-9.7v1.1zm0 2.5l16.7 9.6v-1l-16.6-9.7v1.1z" fill="#FFF" opacity=".7"/><path d="M815.5 368.3v1.1l16.6 9.7v-1.2l-16.6-9.6zM848.5 383.4l-18.2-10.5v-1.2l18.2 10.5v1.2z" fill="#FFF" opacity=".3"/><path d="M849 384.3V382l-33.5-19.4v2.5l33.4 19.3zM816 363.5l7.2 4.2v1.2l-7.1-4.2v-1.1zm14.2 8.2l18.2 10.5v1.2l-18.2-10.5v-1.2z" fill="#FFF" opacity=".3"/><path d="M816.1 363.6v1.1l7.2 4.2v-1.2l-7.1-4.1zM815.5 366.3v1L832 377v-1.1l-16.6-9.6zM837.4 387.2v1l10 5.7v-1l-10-5.7zM837.4 382.7v1l10 5.7v-1l-10-5.7zM837.4 380.6v1l10 5.7v-1l-10-5.7z" fill="#FFF" opacity=".3"/></g><g><path d="M812 393.4s1.4.1 1.5 1.8c0 1.7-1 9-2.6 10.6-1.7 1.6-2-1.9-2-1.9s.4-10.6 3-10.5z" fill="#CACE7A"/><path d="M802.7 405.7s-2 .5-3.4 0c-1.4-.4-1-.5-1-.7.2-.5 2-.5 2.4-.6.3-.1-.3-.3-.5-.6-.1-.2-.5-.4-.4-.5.1-.1.4-.2 1 .2l1.8.8.1 1.4z" fill="#EFB185"/><path d="M802.3 404.1s.2.4.2 1l-.2 1s6.7.8 8.3-.1c0 0 1.5-2.7-1-3.1l-7.3 1.2z" fill="#CACE7A"/><path d="M810 406.2c.2 0 .4 0 .6-.2l.3-.2c1.6-1.6 2.7-9 2.6-10.6 0-.3 0-.6-.2-.8a52.7 52.7 0 01-3 10.9c-.8.2-6 .2-7.8.2 0 .4-.2.6-.2.6s5.5.7 7.8 0z" fill="#CACE7A"/><path d="M804.3 426.3s.4 1.3-.5 1.7a8 8 0 00-2.1 1c-.4.2-4.4 1.9-4.9 1-.5-.7.7-1.6 1-2l3.1-2.5 3.4.8z" fill="#111114"/><path d="M807.5 428.6s.4 1.4-.5 1.7a8 8 0 00-2 1c-.5.3-4.5 2-5 1.1-.5-.8.8-1.7 1-2l3.1-2.6 3.4.8z" fill="#111114"/><path d="M811.3 407.3s-10 6-10.2 7.6a155 155 0 00-.4 10.8s2.5 1.1 3.7.4l1.1-8.7 8.2-5.8c.3-.2-2.5-4.4-2.5-4.4z" fill="#323433"/><path d="M813.7 411.6l-8.2 5.8-1 8.8c-.6.3-1.5.2-2.3 0l1.5-10c.4-1.9 8.4-6.3 8.4-6.3l1.6 1.5v.2z" fill="#252625"/><path d="M811.2 407.5s1.1 3.4 1.7 4.1c0 0-7.9 4-8.3 6-.4 2-1 10.7-1 10.7a5 5 0 004.1.3s1-6.6 1-9.2c0 0 12-3 11.2-9.5 0 0-4.6 1.7-8.7-2.4z" fill="#323433"/><path d="M808.8 419.4c-.1 2.6-1 9.2-1 9.2l-1.3.3.4-4.2c.4-6.6 1.4-6.5 1.4-6.5 7.6-3.3 9.2-6.5 9.2-6.5l2.4-1.5c.4 6.3-11.1 9.2-11.1 9.2z" fill="#252625"/><path d="M816.5 394.1s3.7 2 3.8 2.2c0 .3 1 1-.4 4.3 0 0-1.9 3.6-1 7.1.5 2.1 1 3.2 1 3.2s-1.7 2.5-6.4.7c-.9-.4-2.5-1.7-3-2.7 0 0 .5-3 0-6.6-.5-3.6-.8-8.2 1.2-8.8 0 0 .5-.7 4.8.6z" fill="#EBF2A5"/><path d="M815.2 393s-2.8 1.3-1.6 3.4l-1.3.7s-1.2-3.6 2.9-4.2z" fill="#FEFFFF"/><path d="M817 391.5s-1.3 1.8-.4 3c.5.6-.7 2.1-2.7 2 0 0-1-.2-.8-.6.2-.7 0-1.1-.4-1.7-.3-.6 4.2-2.7 4.2-2.7z" fill="#EFB185"/><path d="M816.6 394.4l.1.3c-.7-.8-2.2-.9-2.2-.9l2-2 .2-.2v.2c-.2.6-.7 1.7 0 2.6z" fill="#DD9569"/><path d="M813 396c.3-1.3 0-1.3-.3-1.8-.1-.2.2-.5.6-.8l.4.4c.7 1.2.7 2.2.6 2.7h-.4c-.3 0-.9-.2-.8-.6z" fill="#F2B78F"/><path d="M817.4 390.5s-.6 2.3-2.2 3.4c-1.4.9-3 1.5-3.3-.2-.2-1.3-.8-4.8.3-5.4 1.6-.9 2.1-2 3.9-1.3 0 0 2 1 1.3 3.5z" fill="#EFB185"/><path d="M817.4 390.5s-.3 2-2.1 3.4l-1.4.7c.8-.6.8-.7 1.4-1.4.6-.6-.8-.4.2-2 .3-.7-1.3 0-1.7 0-2.2 0-2-1.3-2-1.8 0-.2 0-.4.2-.6l.2-.4v-.1l.8-.8 3.6.1.9 1.3-.1 1.6z" fill="#E6A376"/><path d="M816.4 392.8s1.8-1.6 1.2-4c0 0-.3-1.8-2.4-2-1-.2-2.9-.2-3.6 1.8-.3.6-.1 2 2.3 1.4.4-.1 1.3-.2 1.6 0 .3.4.4 1 .2 1.4-.2.4.2.5.3.4 0-.1.5-1.3 1-.8.3.4-.6 1.7-.6 1.8z" fill="#231202"/><path d="M816.4 392.8c0-.1 1-1.4.5-1.8-.4-.5-.9.7-1 .8 0 0-.4 0-.2-.4s.1-1-.2-1.3c-.3-.3-1-.1-1.6-.1.4-.3 1.2-.3 1.5-1 .4-.9 1-1.3 1.5-1.5.6.6.7 1.4.7 1.4.5 2.3-1.2 3.9-1.2 3.9z" fill="#231202"/><path d="M816.4 393.9s-.5 2-2.8 2.5l.7 1.6s4.2-2 2-4.1z" fill="#FEFFFF"/><path d="M820.3 396.4c0 .2 1 1-.4 4.2 0 0-1.6 3.5-.8 7.1.3 1.6.5 1.2 1 2.5.4.8-1.2 1.9-2.8 2-.7-1.9-.5-1.9-.8-4a9 9 0 012.3-8c2-2.4 1.2-3.4 1.2-4 .2 0 .3.1.3.2z" fill="#CACE7A"/><path d="M811.6 388.6s-.4 2.2 2.4 1.5c0 0 1.4-.4 2-1.7.1-.3.5-.7 1-.8 0 0-.8-1-2.8-1-.9.1-1.8 1-2 1.1-.3.2 0 1.1-.6 1z" fill="#4D2201"/><g><path d="M816 411.9l.1.3-5.2 3.6v-.3l5.2-3.6z" fill="#B4B9BC"/><path d="M810.9 415.5v.3l-9.6-4.5v-.4l9.6 4.6z" fill="#7D8183"/><path d="M816 411.9l-5.1 3.6-9.6-4.6 5.2-3.6 9.6 4.6z" fill="#E3E5E5"/><g><path d="M809.4 409.3l.4-.3 1.5 6.4-.4.4-1.5-6.5z" fill="#BDBBBB"/><path d="M799.4 404.6l.4-.4 10 4.8-.4.3-10-4.7z" fill="#D2D0D0"/><path d="M809.4 409.3l1.5 6.5-10-4.7-1.5-6.5 10 4.7z" fill="#D5DFE6"/><path d="M809.4 409.3l-8.5 1.8-1.5-6.5 10 4.7z" fill="#E9F0F4"/></g></g><g><path d="M814.3 412.2s-1.9 2.2-4.1 2.2c0 0-.1-.6.8-1 1-.3 1.2-1.1 1.1-1.2h-1c-.4 0-1-.4 0-.6.7-.2 2-.7 2.9-.7 0 0 1 .7.3 1.3z" fill="#EFB185"/><path d="M818.7 395.8s2 0 2.6 1.6c.8 1.5 2.8 8.7 1.8 10.8-.9 2-8.9 4.5-8.9 4.5.4-1.3-.6-2.2-.6-2.2l6.5-4.2s-3-9.5-1.4-10.5z" fill="#CACE7A"/><path d="M820.1 406.3l-6.5 4.2.4.4a44 44 0 007.2-4.6c.4-.9-2.4-8.9-2.8-10-.8 2 1.7 10 1.7 10z" fill="#EBF2A5"/></g></g></svg>