<svg xmlns="http://www.w3.org/2000/svg" style="isolation:isolate" viewBox="398.4 252.3 111.2 101.8"><g opacity=".2"><path d="M491.5 258.4c3.9 2.2 7 7.6 7 12 0 4.5-3.2 6.3-7 4-4-2.2-7-7.6-7-12 0-4.5 3.1-6.3 7-4z" fill="#FFF" opacity=".1"/><path d="M489 260.4c3.6 2 6.6 7.1 6.5 11.3 0 4.1-3 5.8-6.5 3.7-3.6-2-6.6-7.1-6.5-11.3 0-4.1 3-5.8 6.5-3.7z" fill="#FFF" opacity=".3"/><path d="M486.6 262.4c3.3 2 6 6.6 6 10.5 0 3.8-2.7 5.4-6 3.5-3.4-2-6.2-6.7-6.1-10.5 0-3.9 2.7-5.5 6-3.5z" fill="#FFF" opacity=".4"/><path d="M484 264.4c3.2 1.8 5.7 6.1 5.7 9.7 0 3.6-2.5 5-5.6 3.2a12.3 12.3 0 01-5.7-9.7c0-3.6 2.6-5 5.7-3.2z" fill="#FFF" opacity=".6"/><path d="M481.6 266.4c2.9 1.6 5.2 5.6 5.2 9 0 3.2-2.4 4.5-5.2 2.9a11.3 11.3 0 01-5.2-9c0-3.2 2.4-4.6 5.2-3z" fill="#FFF" opacity=".7"/><path d="M479.1 268.4c2.6 1.5 4.8 5.1 4.8 8.1s-2.2 4.2-4.8 2.7a10.3 10.3 0 01-4.7-8.1c0-3 2.2-4.2 4.8-2.7z" fill="#FFF" opacity=".8"/><path d="M476.7 270.4a9.4 9.4 0 014.2 7.3c0 2.7-1.9 3.8-4.3 2.5a9.4 9.4 0 01-4.2-7.4c0-2.7 2-3.8 4.3-2.4z" fill="#FFF" opacity=".2"/></g><g opacity=".8"><path d="M449.2 269.6a8.8 8.8 0 11-17.6 0 8.8 8.8 0 0117.6 0z" fill="#FFF" opacity=".1"/><path d="M447.5 269.7a7.2 7.2 0 11-14.3 0 7.2 7.2 0 0114.3 0z" fill="#FFF" opacity=".1"/><path d="M446 269.8a5.6 5.6 0 11-11.2 0 5.6 5.6 0 0111.1 0z" fill="#FFF" opacity=".1"/><path d="M444.3 270a4 4 0 11-7.8 0 4 4 0 017.8 0z" fill="#FFF" opacity=".2"/><path d="M442.7 270c0 1.3-1 2.3-2.3 2.3-1.3 0-2.3-1-2.3-2.3a2.3 2.3 0 114.6 0z" fill="#FFF" opacity=".3"/><path d="M441 270.1c0 .4-.3.7-.6.7a.7.7 0 010-1.3c.3 0 .6.3.6.6z" fill="#FFF" opacity=".3"/></g><path d="M413.8 320.2l33.5 18.8 35.7-20-35.3-19.8-34 21z" opacity=".1"/><path d="M481.7 279.8v-.4-.2-.2l-.1-.4v-.4l-.1-.3-.1-.4v-.2-.3l-.2-.4v-.3h-.1l-.2-.5-.1-.4-.1-.3-.2-.4-.1-.3-.2-.5-.2-.4v-.1l-.2-.3a19.2 19.2 0 01-.4-.6v-.1l-.2-.4-.3-.4v-.1l-.6-.7c0-.2-.2-.3-.3-.5l-.3-.3-.3-.4-.3-.3-.1-.1-.2-.3c-.2 0-.3-.2-.4-.3l-.1-.1-.2-.2-.3-.3-.2-.1-.2-.2-.3-.2-.3-.2-.4-.3-.3-.2-.3-.2-.3-.2h-.3v-.1l-.4-.1-.3-.1-.3-.2h-.3-.1-.1l-.1-.1h-.4-.1l-.1-.1H470.3h-.1H469.7l-.2.1-.3.1h-.2l-.5.3-3.4 2 .5-.2.5-.2h.7l.1-.1a5.9 5.9 0 011.3.1l.8.2a7.2 7.2 0 011.5.7l.8.5a15 15 0 011.5 1.2v.1l.7.6.7.8.6.8v.1l.6.7c0 .2.2.3.3.5l.3.4v.2l.5.7v.1l.4 1 .4.9.3 1 .3.9.2 1a15 15 0 010 2.7v.8a10.3 10.3 0 01-.5 1.4c0 .3-.2.4-.3.6l-.3.5-.2.1-.3.3-.5.4 3.5-2 .4-.3.1-.1a7.7 7.7 0 00.4-.5 3 3 0 00.4-.4l.3-.6.2-.4v-.2l.1-.2.1-.4v-.1-.1-.1l.1-.4v-.2-.2-.3l.1-.4v-.3z" fill="#D25400"/><path d="M470.5 268.8a17 17 0 017.7 13.3c0 5-3.5 6.9-7.7 4.4a16.9 16.9 0 01-7.7-13.3c0-4.9 3.5-6.8 7.7-4.4z" fill="#E27124"/><path d="M472 273.2c0-6.3-2.3-10.6-5.8-12.7l-9.3-5.4c3.5 2 5.7 6.5 5.8 12.7v6.5l9.2 5.4v-6.5z" fill="#C3C5C5"/><path d="M472 273.2v6.5l1.1-.7v-6.5c0-8.6-4-14-10-14.7v1.6c5.3 1 8.8 6 8.8 13.8z" fill="#C8D2DB"/><path d="M478.8 284.7v-.5-.2-.3l-.1-.4v-.5l-.1-.5-.2-.5v-.2-.1-.2l-.2-.5-.1-.4v-.1l-.2-.6-.2-.4v-.1-.1l-.2-.3-.1-.5-.2-.3v-.2l-.3-.4-.2-.5v-.1-.1l-.3-.4-.3-.6-.1-.2-.4-.5-.3-.6-.1-.1-.6-.9-.4-.6-.4-.4-.4-.5-.4-.4-.1-.1-.3-.3-.4-.4-.1-.1-.1-.1-.2-.2-.4-.4-.2-.1-.1-.1-.2-.1-.4-.4-.3-.2h-.1l-.4-.3-.4-.3h-.2l-.3-.2-.4-.2-.2-.1-.1-.1-.4-.2-.4-.1h-.1l-.3-.1-.4-.1h-.2l-.1-.1h-.1l-.4-.1h-.5a7 7 0 00-.4 0h-.2-.2-.1a5 5 0 00-.6 0l-.2.1-.5.1h-.1a5 5 0 00-.7.4l-4.3 2.5a4.9 4.9 0 011.3-.5h.1l.8-.1a4.8 4.8 0 011 0l.7.1h.1a7.4 7.4 0 011.8.7h.1a17.3 17.3 0 012 1.1l.9.7v.1a13.1 13.1 0 011.8 1.6l.9 1a18.3 18.3 0 011.5 2l.4.7.3.5.1.3.5.8v.1a22.9 22.9 0 011 2.3v.1l.5 1.2.3 1.2.2 1.2.2 1.2a14.2 14.2 0 010 2.3l-.1 1a9.6 9.6 0 01-.6 1.8l-.4.7a6.6 6.6 0 01-1 1l-.1.2-.6.4 4.4-2.5.6-.4.1-.2c.2 0 .3-.2.4-.3l.1-.2.4-.5.4-.8.3-.5v-.3h.1v-.2l.2-.5v-.2-.1-.2l.1-.4v-.3-.1l.1-.1v-.5-.5-.4z" fill="#C02F1C"/><path d="M464.8 271a21.4 21.4 0 019.6 16.7c0 6.1-4.3 8.6-9.7 5.5a21.3 21.3 0 01-9.7-16.7c0-6.2 4.4-8.7 9.8-5.6z" fill="#781E11"/><path d="M466.8 325.2l8.4-4.8.1-40-8.4 4.8v40z" fill="#ED8001"/><path d="M467 285.2l8.3-4.9-26.6-15.3-1.2.7v.7l-5.2 3-.6-.3-1.3.8 26.5 15.3z" fill="#FACD00"/><path d="M440.4 269.9l-.1 40 26.5 15.3.1-40-26.5-15.3z" fill="#FCA922"/><path d="M442.3 269.5l24.6 14.1 5.8-3.3-25.2-13.9-5.2 3z" fill="#E7E8E9"/><path d="M447.5 265.7v.7l24.5 14.4.7-.5-25.2-14.6z" fill="#FCA922"/><path d="M456.5 330.1l8.4-4.8.1-40-8.4 4.8v40z" fill="#CB3E6F"/><path d="M456.6 290.1l8.4-4.9-26.6-15.3-1.2.7v.7l-5.2 3-.6-.3-1.3.8 26.5 15.3z" fill="#E0588D"/><path d="M430 274.8v40l26.5 15.3.1-40-26.5-15.3z" fill="#7E2745"/><path d="M432 274.4l24.6 14.1 5.8-3.3-25.2-13.9-5.2 3z" fill="#E7E8E9"/><path d="M437.2 270.6v.7l24.5 14.3.8-.4-25.3-14.6z" fill="#7E2745"/><g><path d="M445.8 335.2l8.3-4.9.2-40-8.4 4.9-.1 40z" fill="#6E0095"/><path d="M445.9 295.2l8.4-4.9-26.6-15.3-1.3.7v.7l-5.1 3-.7-.3-1.3.7 26.6 15.4z" fill="#B539DF"/><path d="M419.3 279.8v40l26.5 15.4.1-40-26.6-15.4z" fill="#4D0169"/><path d="M421.3 279.4l24.6 14.2 5.8-3.3-25.3-14-5.1 3.1z" fill="#E7E8E9"/><path d="M426.4 275.7v.7l24.6 14.3.7-.4-25.3-14.6z" fill="#6E0095"/></g><g><path d="M441 305.5v-.4-.3-.2-.5l-.1-.5-.1-.5-.1-.5v-.2l-.1-.3-.2-.5v-.4h-.1v-.1a7.3 7.3 0 00-.4-1v-.1l-.1-.4-.2-.5a4.7 4.7 0 01-.2-.3v-.1a21.7 21.7 0 00-.5-1v-.1l-.3-.5c0-.2-.2-.3-.3-.5v-.2l-.2-.1-.2-.5-.4-.6-.7-1-.4-.5-.4-.5-.4-.4c0-.2-.2-.3-.4-.4v-.1l-.3-.4-.5-.4-.2-.2-.2-.2-.4-.3-.2-.2h-.1l-.2-.2-.4-.3-.3-.2-.1-.1-.4-.3a9 9 0 00-.4-.2h-.1l-.3-.3-.4-.2-.3-.1h-.1l-.4-.2-.4-.2h-.1l-.3-.1-.4-.1h-.2l-.2-.1h-.4l-.3-.1H427h-.2-.2-.7l-.2.1-.5.2h-.1a5 5 0 00-.7.3l-4.3 2.6.6-.3.7-.2h.1l.8-.2h.9l.8.2h.1l.9.2 1 .4a17.3 17.3 0 012 1.2l.9.7h.1a17.4 17.4 0 012.6 2.6v.1a18.3 18.3 0 011.5 2l.4.6c0 .2.2.3.3.5l.1.3.5.9.6 1.2.5 1.2.4 1.2a22.8 22.8 0 01.6 2.4l.1 1.2a10.6 10.6 0 010 2.3l-.1 1-.3.9v.1c0 .3-.2.5-.3.7v.1l-.4.7a5 5 0 01-.4.6l-.2.2-.4.3-.1.1-.6.4 4.4-2.5.6-.4.1-.1.4-.4.1-.2.4-.5.4-.7v-.1l.3-.5v-.2l.1-.2.2-.6v-.2-.3l.1-.4v-.3l.1-.2v-.4-.5-.5z" fill="#C02F1C"/><path d="M427 291.7a21.4 21.4 0 019.7 16.8c0 6.2-4.4 8.7-9.8 5.6a21.3 21.3 0 01-9.6-16.8c0-6.2 4.3-8.7 9.7-5.6z" fill="#781E11"/></g><path d="M454.9 259.2l.3-.1 1-.4h.2l1-.4.8-.2h.2l1-.2h.1l.8-.1h.2l.6-.1h1.3l1 .1h.3a11.7 11.7 0 012 .7h.3l.8.5h.2l-6.5-3.7-2.9-1.7h-.2a12 12 0 00-.7-.4l-.1-.1h-.2l-1-.4-1-.2h-.1-.2l-1-.2H451.3h-.3l-.7.1h-.1l-1 .2-.3.1-.6.1-1.2.4h-.1a13.4 13.4 0 00-1.1.5h-.2l-1 .6-.4.1a34.8 34.8 0 00-3 1.8s-.2 0-.3.2l-1.5 1-.3.3a36.2 36.2 0 00-3 2.7l-.2.1v.1a41 41 0 00-2.2 2.3l-.2.2-1.5 1.9-.2.2-1.2 1.6v.1h-.1a44.1 44.1 0 00-1.2 1.8l-.1.3-.8 1.3-.1.2-1 1.6v.1l-.2.3-.6 1.3-.1.2v.2l-.8 1.6-.1.2-.6 1.5-.1.2-.1.2-.6 1.8-.6 1.9v.2l-.1.1a40 40 0 00-.5 2.1v.2l-.1.3-.2.8v.5l-.2 1v.3l-.2 1.9v.4l-.1 1.8v6.5l9.3 5.4v-6.5-1.8-.4l.2-1.8.1-.5.1-.8.1-.6.2-.8v-.5l.6-2v-.4l.6-1.8v-.1l.7-1.8.2-.4.6-1.4v-.3l.8-1.6.2-.4.7-1.3.1-.3 1-1.6v-.3l.9-1.3c0-.2.2-.3.3-.4l1-1.6.2-.2 1.1-1.6.2-.2 1.5-2 .2-.1 2.1-2.3.3-.2 1.4-1.3.1-.1 1.5-1.3.3-.2 1.6-1.1.2-.2a32 32 0 013-1.8l.4-.1 1-.5z" fill="#E6E7EC"/><path d="M452.2 260.5a46 46 0 00-20.8 36v6.6l1.2-.7v-6.5c-.1-12.5 8.7-27.7 19.6-34a16 16 0 0111-2.5v-1.6c-3.3-.4-7 .4-11 2.7z" fill="#C8D2DB"/><g><path d="M434 307.1v-.4-.1-.1-.1-.4-.4l-.1-.4-.1-.4v-.1-.1-.2l-.2-.4v-.3h-.1v-.1l-.1-.4-.2-.4v-.1l-.1-.3-.2-.3v-.3h-.1v-.1a6 6 0 00-.2-.4l-.2-.4v-.1l-.2-.4a5.4 5.4 0 00-.4-.5v-.1l-.2-.4-.3-.5-.6-.7c0-.2-.2-.3-.3-.5a12 12 0 00-.3-.4l-.3-.3-.3-.4h-.1l-.2-.3-.4-.3v-.1h-.1l-.2-.2-.3-.3-.2-.1-.2-.2-.3-.3-.3-.1v-.1l-.4-.2-.3-.2-.3-.2-.3-.1-.3-.1-.4-.2-.3-.1-.3-.1-.3-.1h-.2l-.1-.1h-.4-.2v-.1h-.5-.1-.7l-.2.1-.3.1h-.2l-.5.3-3.4 2 .5-.2.5-.2H419.3a5.9 5.9 0 011.3 0l.8.2.7.3a18.4 18.4 0 011.6 1l.7.5h.1a11.1 11.1 0 011.4 1.4l.7.7.6.8v.1a17.8 17.8 0 01.9 1.2l.2.4.2.3.3.6v.1l.5 1 .4.9.3 1 .3.9.2 1a15 15 0 010 2.7v.8l-.2.7v.1l-.3.6-.3.6-.4.5v.1l-.4.3-.1.1-.4.3 3.4-2c.2 0 .3-.2.5-.3l.1-.1.3-.3.1-.1.3-.4.3-.6.2-.5v-.1l.1-.1v-.1l.2-.4v-.2-.2l.1-.4v-.2-.1-.4-.4-.4z" fill="#D25400"/><path d="M423 296.2a17 17 0 017.6 13.3c0 4.9-3.5 6.8-7.7 4.4a17 17 0 01-7.7-13.3c0-5 3.5-6.9 7.7-4.4z" fill="#E27124"/></g><path d="M426.4 306.5v-.2-.1-.3-.1-.2l-.1-.2v-.1-.1l-.1-.2v-.1l-.1-.3v-.1h-.1v-.2l-.1-.2v-.1l-.2-.2v-.2l-.2-.2v-.2l-.1-.1-.1-.2-.2-.2-.2-.4-.2-.2-.1-.2-.2-.1v-.2h-.1l-.1-.1-.2-.2-.1-.1-.2-.1v-.1h-.1l-.2-.2h-.1v-.1l-.2-.1-.2-.1h-.1l-.2-.2h-.1-.1l-.2-.1h-.1l-.2-.1h-.1l-.2-.1h-.5-.2-.1-.2v.1l-.3.1-1.6 1 .3-.2H420.2a1.8 1.8 0 01.4 0l.3.2a4 4 0 01.7.4l.4.3.3.3.3.3.4.4.3.4.2.3.2.3v.2h.1l.2.4.2.4.2.5.2.4v.4l.2.5v1.6l-.1.4-.2.3-.1.3-.2.2-.2.2-.2.2 1.6-1 .2-.1.2-.2.2-.2.1-.3.1-.2v-.1-.1l.1-.2v-.2l.1-.1v-.1-.1-.2-.1-.2z" fill="#C8D2DB"/><g><path d="M421.3 301.4c2 1.1 3.5 3.9 3.5 6.2 0 2.2-1.6 3.1-3.5 2a7.9 7.9 0 01-3.6-6.2c0-2.2 1.6-3.1 3.6-2z" fill="#E6E7EC"/></g><g opacity=".2"><path d="M421.3 301.8c2 1.2 3.5 4 3.5 6.2s-1.6 3.1-3.6 2a7.8 7.8 0 01-3.5-6.1c0-2.3 1.6-3.2 3.6-2z" fill="#FFF" opacity=".2"/><path d="M418.7 302.8a9.3 9.3 0 014.3 7.3c0 2.7-2 3.8-4.3 2.5a9.3 9.3 0 01-4.2-7.4c0-2.6 1.9-3.7 4.2-2.4z" fill="#FFF" opacity=".8"/><path d="M416.2 303.8c2.7 1.6 4.9 5.4 4.9 8.5 0 3.1-2.2 4.4-5 2.8-2.7-1.6-4.9-5.4-4.9-8.5 0-3.1 2.3-4.4 5-2.8z" fill="#FFF" opacity=".7"/><path d="M413.6 304.8c3.1 1.8 5.6 6.1 5.6 9.6 0 3.6-2.5 5-5.6 3.3-3-1.8-5.6-6.2-5.6-9.7 0-3.6 2.6-5 5.6-3.2z" fill="#FFF" opacity=".5"/><path d="M411.1 305.8c3.5 2 6.3 6.8 6.3 10.8 0 4-2.9 5.6-6.3 3.6-3.5-2-6.3-6.9-6.3-10.8 0-4 2.8-5.6 6.3-3.6z" fill="#FFF" opacity=".3"/><path d="M408.6 306.8c3.8 2.2 6.9 7.6 6.9 12s-3.1 6.1-7 4c-3.8-2.3-7-7.7-7-12 .1-4.5 3.2-6.3 7-4z" fill="#FFF" opacity=".2"/></g><g opacity=".1"><path d="M453 336.7c-4 2.3-4 6 0 8.2l12.8 7.5a15.6 15.6 0 0014.1 0l16.7-9.6c4-2.3 4-6 0-8.2l-12.8-7.5a15.6 15.6 0 00-14.2 0l-16.6 9.6z" opacity=".1"/></g><g><path d="M463 345.7a26.4 26.4 0 0023.8 0c6.6-3.8 6.6-10 0-13.8a26.4 26.4 0 00-24 0c-6.5 3.8-6.5 10 .1 13.8z" fill="#FCFDFD" opacity=".8"/><path d="M460.8 339.7a32.2 32.2 0 0028.1 0c7.8-4.3 7.7-11.3 0-15.6a32.2 32.2 0 00-28.2 0c-7.7 4.3-7.6 11.3.1 15.6z" fill="#FCFDFD" opacity=".7"/><path d="M458.7 333.7c9 4.8 23.4 4.8 32.3 0 9-4.8 8.9-12.6 0-17.3-9-4.8-23.5-4.8-32.4 0-8.9 4.7-8.8 12.5.1 17.3z" fill="#FCFDFD" opacity=".5"/><path d="M456.6 327.7a44.1 44.1 0 0036.5 0c10-5.3 10-13.8 0-19.1a44.1 44.1 0 00-36.6 0c-10 5.3-10 13.8.1 19.1z" fill="#FCFDFD" opacity=".4"/><path d="M454.6 321.7a50 50 0 0040.6 0c11.3-5.8 11.2-15.1 0-20.9a50 50 0 00-40.8 0c-11.2 5.8-11.1 15.1.2 20.9z" fill="#FCFDFD" opacity=".3"/><path d="M452.5 315.7a56.2 56.2 0 0044.9 0c12.3-6.3 12.3-16.4-.2-22.6a56.2 56.2 0 00-44.9 0c-12.4 6.2-12.3 16.3.2 22.6z" fill="#FCFDFD" opacity=".1"/></g><g><path d="M486.6 346.6s-.4-2.8 3-2c0 0-.7 2.4-3 2z" fill="#161619"/><clipPath id="a"><path d="M464.7 338v-1 1z" fill="#FFF"/></clipPath><g clip-path="url(#a)"><path d="M464.5 337v1a1.3 1.3 0 01.3 0v-1h-.3z" fill="#B8387B"/></g><path d="M496 341s-1.7 1.4-1.4 2.8c0 0 .6.6 1-.4.6-1 1.1-2.4.3-2.3z" fill="#0A1014"/><path d="M494.6 344s2.5.8 2.9 0l1.1-1.7c.3-.3 2.3-3.7 1.7-4.2-.7-.5-1.6.4-2 .6-.2.3-3.3 2.7-3.3 2.7l-.4 2.6z" fill="#111114"/><path d="M474.5 329s8.5 4.9 10.4 6.5c1.7 1.4 10.5 5.6 10.5 5.6s-.4.9-.7 2.8c0 0-8.1-.1-13.2-4.8 0 0-17-3.6-15.6-12.4 0 0 5.6 1 8.6 2.3z" fill="#323433"/><path d="M498.6 342.3c.3-.3 2-3 1.8-4-.3 0-.8 0-1 .7-.4 1-1.6 3.2-1.9 3.5-.2.2-1.3 1.3-1 1.8.4 0 .8 0 1-.3l1.1-1.7z" fill="#1D1D21"/><path d="M469.3 330.7s7.6 2 10.6 4c2.5 1.4 9.6 9.8 9.6 9.8s-2.2-.2-3 2.1l-9.4-8.4s-6.8.5-12.4-1.4c-2.8-1-2.4-5.4-2.4-5.8 0-.4 7-.3 7-.3z" fill="#252625"/><path d="M470.8 313.2s-1.6.2-1.5 2c0 1.8 1.7 9.8 3.7 11.3 2 1.6 1.9-2.1 1.9-2.1s-1.2-11.6-4-11.2z" fill="#CACE7A"/><path d="M466.2 313.8s-4.6 2.6-4.7 3c-.1.2-.6.5.9 4 0 0 1.4 3.3.4 7.2-.6 2.2-.5 3-.5 3s1.8 3.8 6.9 2c1-.4 3.9-3.2 4.4-4.3 0 0-1.6-2-1-5.9.7-3.9 1-9-1.2-9.6 0 0-.5-.7-5.2.6z" fill="#EBF2A5"/><path d="M467.7 312.6s3 1.5 1.6 3.8l1.4.7s1.4-3.9-3-4.6z" fill="#FEFFFF"/><path d="M465.8 311s1.2 1.9.2 3.1c-.5.8.8 2.5 3 2.3 0 0 1-.2.9-.6-.3-.8 0-1.3.4-1.9.4-.6-4.6-3-4.6-3z" fill="#EFB185"/><path d="M466 314.2l-.1.3c.8-.9 2.4-1 2.4-1l-2-2.3-.3-.1v.2c.2.6.8 1.9 0 2.9z" fill="#DD9569"/><path d="M469.9 315.8c-.2-1.3 0-1.3.4-1.9.1-.1-.2-.4-.7-.8l-.3.4c-.9 1.3-.9 2.4-.8 3h.5c.3-.1 1-.3.9-.7z" fill="#F2B78F"/><path d="M465.3 310s.5 2.4 2.3 3.6c1.5 1 3.3 1.6 3.6-.2.3-1.4 1-5.2-.3-5.9-1.7-1-2.3-2.1-4.2-1.4 0 0-2.2 1-1.4 3.8z" fill="#EFB185"/><path d="M465.3 310a5.7 5.7 0 003.7 4.4c-.8-.6-.9-.8-1.5-1.5-.6-.8 1-.5-.1-2.3-.4-.7 1.4.1 1.8.1 2.3 0 2.1-1.4 2.2-2l-.2-.6-.2-.5h-.1l-.8-1-3.9.2-1 1.3v1.8z" fill="#E6A376"/><path d="M466.3 312.3s-1.9-1.7-1.2-4.2c0 0 .3-2 2.6-2.3 1-.2 3.1 0 4 2 .2.8 0 2.2-2.6 1.6-.4-.1-1.4-.3-1.8 0-.3.4-.4 1-.2 1.5.1.4-.3.5-.3.4 0-.1-.6-1.4-1-.9-.5.5.5 1.9.5 2z" fill="#A5420B"/><path d="M466.3 312.3s-1-1.4-.6-1.9c.5-.5 1 .8 1 .9.2 0 .5 0 .4-.4-.2-.5-.1-1.1.2-1.4.3-.3 1.2-.2 1.8-.1-.5-.3-1.4-.4-1.7-1.1-.4-1-1-1.5-1.5-1.7a3 3 0 00-.8 1.5c-.7 2.5 1.2 4.2 1.2 4.2z" fill="#4D2201"/><path d="M466.3 313.5s.5 2.3 3 2.9l-.7 1.7s-4.6-2.3-2.3-4.6z" fill="#FEFFFF"/><path d="M471.6 307.9s.4 2.4-2.7 1.5c0 0-1.5-.4-2.1-1.8-.2-.3-.5-.8-1-.9 0 0 .8-1.1 3-1 1 0 2 1 2.2 1.2.3.2-.1 1.2.6 1z" fill="#A5420B"/><path d="M481.8 325.8s2.2.4 3.8-.2c1.5-.6 1.1-.7 1-1-.3-.4-2.3-.3-2.6-.4-.4 0 .3-.4.4-.6.2-.3.5-.6.4-.7-.1 0-.4-.1-1 .3-.5.5-2 1-2 1v1.6z" fill="#EFB185"/><path d="M482.1 324v1c0 .7.2 1.2.2 1.2s-7.2 1.4-9 .5c0 0-1.8-2.7.9-3.4l8 .8z" fill="#CACE7A"/><path d="M468.6 331.8v.3l5.5 4v-.4l-5.5-4z" fill="#B4B9BC"/><path d="M474.1 335.7v.3l10.2-4.6v-.4l-10.2 4.7z" fill="#7D8183"/><path d="M468.6 331.8l5.5 3.9 10.2-4.7-5.5-3.9-10.2 4.7z" fill="#E3E5E5"/><g><path d="M475.7 329.2l-.4-.4-1.7 6.8.4.4 1.7-6.8z" fill="#BDBBBB"/><path d="M486.4 324.3l-.4-.4-10.7 5 .4.3 10.7-4.9z" fill="#D2D0D0"/><path d="M475.7 329.2L474 336l10.7-4.9 1.7-6.8-10.7 5z" fill="#D5DFE6"/><path d="M475.7 329.2l9 2 1.7-6.9-10.7 5z" fill="#E9F0F4"/></g><path d="M471.4 332.3s2.4 2 4.8 1.5c0 0 0-.6-1-.8-1.1-.3-1.5-1-1.5-1.2l1.2-.2c.4 0 .8-.6 0-.6-1 0-2.5-.4-3.4-.2 0 0-1 1-.1 1.5z" fill="#EFB185"/><path d="M463 316.2s-1.6-.3-2 1.5c-.5 1.8-1.3 9.8 0 12 1.5 2 10.5 3.1 10.5 3.1-.6-1.4.3-2.5.3-2.5L464 327s1.9-10.3-1-10.8z" fill="#CACE7A"/><path d="M486.6 346.6s2.2 2 3 1.5l1.8-.8c.4-.1 3.9-2 3.6-2.8-.3-.8-1.6-.5-2-.4l-4.2.5-2.2 2z" fill="#111114"/><path d="M491.4 347.3c.4-.1 3.1-1.6 3.5-2.5-.2-.2-.6-.4-1.2 0-.8.7-3 2-3.3 2-.3.2-1.8.5-2 1 .5.4.9.5 1.1.3l1.9-.8z" fill="#1D1D21"/></g><g opacity=".8"><path d="M483 280.3a8.8 8.8 0 11-17.6 0 8.8 8.8 0 0117.6 0z" fill="#FFF" opacity=".1"/><path d="M481.3 280.4a7.2 7.2 0 11-14.3 0 7.2 7.2 0 0114.3 0z" fill="#FFF" opacity=".1"/><path d="M479.7 280.6a5.6 5.6 0 11-11 0 5.6 5.6 0 0111 0z" fill="#FFF" opacity=".1"/><path d="M478 280.7a4 4 0 11-7.8 0 4 4 0 017.9 0z" fill="#FFF" opacity=".2"/><path d="M476.5 280.8a2.3 2.3 0 11-4.6 0 2.3 2.3 0 014.6 0z" fill="#FFF" opacity=".3"/><path d="M474.8 280.9c0 .4-.3.7-.6.7a.7.7 0 010-1.4c.3 0 .6.3.6.7z" fill="#FFF" opacity=".3"/></g></svg>