<svg xmlns="http://www.w3.org/2000/svg" style="isolation:isolate" viewBox="403.4 602.2 117.3 110.8"><path d="M494.2 619.3c4.2-1 4.8 7.3 1.6 9.7-.6.4-2.3 0-2.4-.6-.5-2.5 3.2-5.2 1.3-7.6l-.3-.3c-.3-.4-1.2-.9-.2-1.2z" fill="#2B0D04"/><path d="M478 635.1s-2 1-3 .7c-1-.2-2.2-.9-1.7-1.2.6-.3 2-.2 2.1-.6.1-.4-.8-.3-.4-.5s1.3-.3 2.9.5c0 0 .4.5 0 1.1z" fill="#EFB185"/><path d="M487.7 625.5s1.5-.5 1.5 1.2c0 0-.3 2.2-2 5.6 0 0-1.8 3.3-2.6 3.4-1 .2-7.3 0-7.3 0s.4-1 0-2c0 0 5.6-.7 6-1 .4-.5 3.2-6.9 4.4-7.2z" fill="#CACE7A"/><path d="M488 665s-.1 1.3-.6 2c-.6.5-3 2-2.8 2.6.1.7 1.9.8 3-.3 1-1 1.3-1.2 1.8-1.3.5-.1 1.1-.7.7-1.7 0 0-1.5-.4-2-1.2z"/><path d="M487.4 638s-2 9.8-.9 15.3c0 0 .5 4.2.8 5.4.2 1.2.2 7.6.2 7.6s1.8.8 2.7 0c0 0 1.1-6.7-.1-10.9 0 0 1.5-8 1.5-10.6 0-2.6.4-4.9.4-4.9l-4.6-1.9z" fill="#252625"/><path d="M486.5 653.3s.5 4.2.8 5.4c.2 1.2.2 7.6.2 7.6l.7.2.4-6c.2-1-1-6.9-1.1-9-.1-2.2 2.3-10.4 2.3-10.4l-.7-2.3-1.7-.7s-2 9.7-.9 15.2z" fill="#323433"/><path d="M493.5 667.5s-.1 1.2-.6 1.9c-.5.6-3 2.1-2.8 2.8.2.6 2 .7 3-.4 1.1-1.1 1.4-1.3 1.8-1.4.5-.1 1.2-.7.7-1.7 0 0-1.5-.4-2.1-1.2z"/><path d="M495.6 641.3s1.9 2.7 1 8.4l-.5 6.7s1.3 2.2.4 8.7l-.9 4s-1 .7-2.3-.9c0 0 .1-9.7-.3-11.2-.4-1-1.9-5.6-2.5-10-.2-1.6-2.7-4.3-2.6-5.7h7.7z" fill="#323433"/><path d="M495.6 669l1-3.9c.8-6.6-.5-8.7-.5-8.7l.5-6.7c.9-5.7-1-8.4-1-8.4h-.3l-2 1.3s2 10.7 1.9 13.4c-.2 2.7.6 5.9.5 7.6 0 1-.6 3.8-1 5.6.6 0 1-.2 1-.2z" fill="#252625"/><path d="M496.9 629.5s-1.8-3.3-8.8-4c0 0-1-.5-1 3 0 .6-.5 1.5-.9 2-.3.4-1.3 2.2.8 4.4 0 0 .9 3.2-.1 5.3-.9 1.8 3.7 3.6 7.6 3.3.5-.1 1.8-.6 1.4-2.2-.5-1.7-1.7-4.5-1-7.6.9-3 2.5-2.7 2-4.3z" fill="#EBF2A5"/><path d="M496.9 629.3c.5 1.6-1.1 1.2-2 4.3-.7 3.1.5 6 1 7.7.4 1.6-.6 2-1.1 2l-2 .2c1.3-3-.7-8.6-.8-11.6 0-3.1 2.8-4.4 2.8-4.4 1.6 1 2 1.8 2 1.8z" fill="#CACE7A"/><path d="M493.8 641.4s-1.3 1.7-2.2 2c-1 .2-2.5.2-2.1-.3.3-.6 1.7-1.1 1.6-1.5-.1-.4-1 0-.6-.3.3-.4 1-.9 2.8-.8 0 0 .6.1.5.9z" fill="#EFB185"/><path d="M495.3 628.1s-1.6.5-.8 2.8l2.2 6.2v.6l-4.3 2.7s1.3.6 1 1.8c0 0 6.5-1.8 6.6-4.4 0 0-2.3-10.7-4.7-9.6z" fill="#EBF2A5"/><path d="M488.7 624s1.1 1.5.4 3c-.2.4-.7 2.2 2 1.6 0 0 2.9-1.1 2.1-2-.5-.6-1-1.5 0-4.3l-4.5 1.6z" fill="#E8A476"/><path d="M493.2 626.5l.2.3c-2.6.4-4.3-1.6-4.3-1.6l3.6-2.7.4.4c-.8 2.3-.3 3 .1 3.6z" fill="#DB9669"/><g><path d="M489.5 618.9s-.7.2-1 2.3c0 .3-.3.5-.5 1.1-.1.6-.4 3 1 3.3.9.3 3.4-.2 4.4-2.5 1-2.3-.8-5.6-3.9-4.2z" fill="#F1B287"/></g><g><path d="M492.2 623.4s.4-1.1 1.1-.7c.2.1.4.4 0 1-.3.5-1 1-1.6 1l.5-1.3z" fill="#F1B287"/></g><path d="M494.2 619.3h1.4c.3 1 0 1.8-.4 2.5 0-.3-.2-.6-.5-1l-.3-.3c-.3-.4-1.2-.9-.2-1.2z" fill="#EFF3FC"/><path d="M489.7 618c1-1 2.3-.8 3.4-.4 1 .4 2.1 1.5 2.1 2.5 0 1.4-.4 3.2-2 4-.7.4.4-1.1-.5-1.2-.2 0-.3-.4-.5-.5l-2.3-1-.3-.7-.3.6-1-.5c-.2-1 .7-2.3 1.4-2.9z" fill="#2B0D04"/><path d="M492.5 622.5c-.4.3-.5.8-.3 1 .2.2.7.1 1-.2.5-.4.6-.8.4-1-.2-.3-.7-.2-1 .2z" fill="#F1B287"/><g opacity=".5"><path d="M484 670.8a20 20 0 0018.1-.2c5-3 4.9-7.7-.2-10.5a20 20 0 00-18.1.2c-5 3-4.9 7.6.2 10.5z" fill="#FCFDFD" opacity=".8"/><path d="M482.3 666.3c6 3.2 15.5 3 21.4-.3 5.8-3.3 5.7-8.6-.2-11.8-6-3.2-15.5-3.1-21.4.2-5.8 3.3-5.7 8.6.2 11.9z" fill="#FCFDFD" opacity=".7"/><path d="M480.7 661.7a29 29 0 0024.5-.2c6.7-3.8 6.6-9.6-.2-13.2a29 29 0 00-24.5.2c-6.7 3.8-6.6 9.6.2 13.2z" fill="#FCFDFD" opacity=".5"/><path d="M479 657.2c7.8 3.9 20.2 3.8 27.8-.3 7.6-4.1 7.4-10.6-.3-14.5-7.7-4-20-3.8-27.7.3-7.6 4-7.5 10.5.3 14.5z" fill="#FCFDFD" opacity=".4"/><path d="M477.4 652.6a38 38 0 0031-.3c8.4-4.4 8.3-11.5-.3-15.8a38 38 0 00-31 .3c-8.4 4.5-8.3 11.6.3 15.8z" fill="#FCFDFD" opacity=".3"/><path d="M475.8 648.1a42.7 42.7 0 0034-.4c9.4-4.8 9.3-12.5-.2-17.1a42.6 42.6 0 00-34.1.3c-9.3 4.9-9.2 12.6.3 17.2z" fill="#FCFDFD" opacity=".1"/></g><g opacity=".5"><path d="M470.2 651.6v1.2l13 7.6V659l-13-7.5zM442.8 639.1v8.6l18.6 10.7v-8.6l-18.6-10.7z" fill="#CB3E6F" opacity=".5"/><path d="M463.2 668l-21.8-12.7v-19.1l21.9 12.6V668zm-20.4-20.3l18.6 10.7v-8.6l-18.6-10.7v8.6zM441.4 632.7v1.5l21.9 12.6v-1.4l-21.9-12.7z" fill="#E8568E" opacity=".5"/><path d="M470.2 662.5v8.5l13 7.5V670l-13-7.5z" fill="#CB3E6F" opacity=".5"/><path d="M484.6 681.2l-16.7-9.7.1-29.4 16.7 9.7v29.4zM470.3 671l13 7.5V670l-13-7.5v8.5zm0-24.2l13.1 7.6v-1.2l-13-7.6v1.2zm0 6l13 7.6v-1.2l-13-7.6v1.2zm0 2.7l13 7.6v-1.2l-13-7.6v1.2zm0-6l13.1 7.6V656l-13-7.5v1.2z" fill="#E8568E" opacity=".5"/><path d="M486.4 683.7l-47.1-27.2.1-36.9 47 27.2v37zM468 671.5l16.7 9.7v-29.4L468 642v29.4zm-26.6-16.2l21.8 12.7v-19.2l-21.8-12.6v19.1zm0-30.2l44 25.4v-3.3l-44-25.3v3.2zm0 3.1l22 12.6v-1.4l-22-12.6v1.4zm0 2.7l22 12.7V642l-22-12.6v1.4zm0 3.3l21.9 12.6v-1.4l-21.9-12.7v1.5z" fill="#CB3E6F" opacity=".7"/><path d="M441.4 629.5v1.4l22 12.7V642l-22-12.6z" fill="#E8568E" opacity=".5"/><path d="M484.7 649.2L461 635.5v-1.6l23.9 13.8v1.5z" fill="#CB3E6F" opacity=".5"/><path d="M485.4 650.5v-3.3l-44-25.3v3.2l44 25.4zm-43-27.3l9.4 5.4v1.6l-9.5-5.5v-1.5zm18.5 10.7l23.9 13.8v1.5l-24-13.8V634z" fill="#E8568E" opacity=".5"/><path d="M442.3 623.2v1.5l9.4 5.5v-1.6l-9.4-5.4z" fill="#CB3E6F" opacity=".5"/><path d="M441.4 626.8v1.4l22 12.6v-1.4l-22-12.6z" fill="#E8568E" opacity=".5"/><path d="M470.2 654.3v1.2l13 7.6v-1.2l-13-7.6zM470.2 648.4v1.2l13.1 7.5v-1.2l-13-7.5zM470.2 645.6v1.2l13.1 7.6v-1.2l-13-7.6z" fill="#CB3E6F" opacity=".5"/></g><g><path d="M408 676.6l-4.5-2.6-.1-21.4 4.5 2.6v21.4z" fill="#ED8001"/><path d="M407.9 655.2l-4.5-2.6 14.2-8.2.7.4v.4l2.7 1.6.4-.2.7.4-14.2 8.2z" fill="#FACD00"/><path d="M422 647l.1 21.4-14.2 8.2v-21.4L422 647z" fill="#FCA922"/><path d="M421 646.8l-13.1 7.6-3.1-1.8 13.5-7.4 2.7 1.6z" fill="#E7E8E9"/><path d="M418.3 644.8v.4l-13.2 7.6-.3-.2 13.5-7.8z" fill="#FCA922"/><g><path d="M413.4 679.2l-4.4-2.6-.1-21.4 4.5 2.6v21.4z" fill="#CB3E6F"/><path d="M413.4 657.8l-4.5-2.6 14.2-8.2.7.4v.4l2.7 1.6.4-.2.7.4-14.2 8.2z" fill="#E0588D"/><path d="M427.6 649.6V671l-14.2 8.2v-21.4l14.2-8.2z" fill="#7E2745"/><path d="M426.5 649.4l-13.1 7.6-3.1-1.8 13.5-7.4 2.7 1.6z" fill="#E7E8E9"/><path d="M423.8 647.4v.4l-13.2 7.6-.3-.2 13.5-7.8z" fill="#7E2745"/></g><g><path d="M419.2 682l-4.5-2.7V658l4.4 2.6V682z" fill="#6E0095"/><path d="M419.1 660.5l-4.5-2.6 14.2-8.2.7.4v.4l2.8 1.6.3-.2.7.4-14.2 8.2z" fill="#B539DF"/><path d="M433.3 652.3v21.4l-14.1 8.2v-21.4l14.1-8.2z" fill="#4D0169"/><path d="M432.3 652.1l-13.2 7.6-3.1-1.8 13.5-7.4 2.8 1.6z" fill="#E7E8E9"/><path d="M429.5 650.1v.4l-13.1 7.6-.4-.2 13.5-7.8z" fill="#6E0095"/></g></g><g opacity=".2"><g opacity=".2"><g opacity=".2"><path d="M507.4 644.3l7 45.6-66.8-38.5-7-45.7 66.8 38.6z" fill="#FFF" opacity=".9"/></g><g opacity=".3"><path d="M501.3 646.9l6.8 44.6L443 654l-6.9-44.7 65.3 37.7z" fill="#FFF" opacity=".8"/></g><g opacity=".5"><path d="M495.1 649.5l6.7 43.6-63.7-36.8-6.7-43.5 63.8 36.8z" fill="#FFF" opacity=".7"/></g><g opacity=".7"><path d="M489 652.2l6.5 42.5-62.2-35.9-6.5-42.5 62.2 35.9z" fill="#FFF" opacity=".5"/></g><g opacity=".8"><path d="M482.9 654.9l6.3 41.5-60.7-35-6.3-41.6 60.7 35z" fill="#FFF" opacity=".4"/></g><path d="M476.8 657.5l6.1 40.5-59.1-34.2-6.2-40.5 59.1 34.2z" fill="#FFF" opacity=".3"/></g></g><g><path d="M481.4 698.5l-17 10-40.3-23.3 17-9.9 40.3 23.3z" opacity=".1"/><path d="M473 694.8v2.4l-11.7 6.8v-2.4l11.8-6.9z" fill="#A9B5C4"/><path d="M461.3 701.6v2.4l-28-16.1.1-2.4 27.9 16z" fill="#C3C5C5"/><path d="M473 694.8l-11.7 6.8-27.9-16.1 11.8-6.9 27.9 16.1z" fill="#E6E7EC"/><path d="M473 694.8l-39.6-9.3 11.8-6.9 27.9 16.1z" fill="#939599" opacity=".5"/><g><path d="M462.2 697l2-1.1.1-21.8-2 1.2-.1 21.8z" fill="#A9B5C4"/><path d="M462.3 675.3l2-1.2-19-11-2 1.3 19 11z" fill="#C0C5D1"/><path d="M443.3 664.4V686l18.9 11v-21.8l-18.9-11z" fill="#D5DFE6"/></g><g><path d="M475.4 657.5l2.5-2 6.2 40.5-2.5 2-6.2-40.5z" fill="#BDBBBB"/><path d="M416.2 623.4l2.6-2 59.1 34.2-2.5 2-59.2-34.2z" fill="#D2D0D0"/><path d="M475.4 657.5l6.2 40.5-59.2-34.1-6.2-40.5 59.2 34.1z" fill="#D5DFE6"/><path d="M475.4 657.5l-53 6.4-6.2-40.5 59.2 34.1z" fill="#E9F0F4"/></g></g><g><path d="M485.5 703.6c-3.8 2.1-3.8 5.6 0 7.8 3.6 2.1 9.7 2.1 13.4 0 3.8-2.2 3.8-5.7 0-7.8a14.9 14.9 0 00-13.4 0z" opacity=".1"/></g><g><path d="M497.1 691.3c2.6 1.5 2.7 4 0 5.5a10.5 10.5 0 01-9.5 0c-2.6-1.5-2.7-4 0-5.5 2.6-1.6 6.9-1.6 9.5 0z" fill="#F9739C"/><path d="M497.1 691.3a10.5 10.5 0 00-9.5 0c-2.7 1.5-2.6 4 0 5.5s7 1.5 9.5 0c2.7-1.5 2.6-4 0-5.5zm-.8 5a8.6 8.6 0 01-7.9 0c-2.1-1.3-2.1-3.3 0-4.5a8.5 8.5 0 017.8 0c2.2 1.2 2.2 3.2 0 4.5z" fill="#EF567F"/><path d="M488.4 684.1v.2h-.1l-.3.2h-.8c-.1 0-.2-.1-.2-.3l2.6 19.7c0 .1 0 .2.2.3H490.6l.2-.2h.1v-.2l-2.5-19.8v.1z" fill="#5B7F2A"/><path d="M488.2 683.8c.3.1.3.4 0 .6-.2.2-.7.3-1 .1-.3 0-.3-.4 0-.6.2-.2.7-.2 1-.1z" fill="#4B6E21"/><path d="M499.7 685.3h-.1v.1h-.2-.5l-.3-.1-.2-.2-.1-.3-6 18.9v.3h.1l.1.1v.1h.2l.1.1h.7l.1-.1v-.1l6-19v.2z" fill="#5B7F2A"/><path d="M499.6 684.9c.2.2.1.5-.2.6-.3 0-.8-.1-1-.4-.2-.2-.1-.5.2-.5.3-.1.8 0 1 .3z" fill="#4B6E21"/><path d="M494 682.6v.1h-.1l-.2.2h-.6l-.3-.1-.2-.3v19.8c0 .1 0 .2.2.3h.1l.1.1h.8v-.1h.1v-.1h.1v-20.1c.1.1.1.1 0 .2z" fill="#2F6680"/><path d="M493.9 682.2c.3.1.3.4 0 .6h-1c-.3-.2-.3-.5 0-.6.2-.2.7-.2 1 0z" fill="#4EAAD5"/><path d="M496.7 682.7l-.1.1h-.1l-.3.1h-.3-.2l-.3-.1-.1-.4-2 19.8.2.3h.1l.1.1H494.8v-.1h.1v-.1l2-19.8h-.1z" fill="#770F13"/><path d="M496.5 682.3c.3.2.3.4 0 .6-.3.1-.8 0-1-.1-.3-.2-.3-.5 0-.6.3-.2.7-.1 1 0z" fill="#C51820"/><g><path d="M490.5 685.6v.1l-.1.1-.3.1h-.2-.5l-.1-.3.6 17 .2.2h.2v.1h.5l.2-.1h.1v-.1-.1l-.6-17z" fill="#770F13"/><path d="M490.3 685.3c.3.2.3.4 0 .6a1 1 0 01-.9 0c-.2-.1-.2-.4 0-.5.3-.2.7-.2 1 0z" fill="#C51820"/></g><g><path d="M493.2 685.4l-.1.1h-.1l-.3.1h-.3-.2l-.3-.2-.1-.3-3 19.6c0 .1 0 .2.2.3h.1v.1H489.5v.1H490.2l.1-.1v-.1h.1l3-19.7h-.1z" fill="#ED8001"/><path d="M493 685c.3.2.3.5 0 .6a1 1 0 01-1-.2c-.3-.2-.3-.4 0-.6.3-.1.8 0 1 .2z" fill="#FCA922"/></g><path d="M487.6 696.8c2.6 1.5 7 1.5 9.5 0 1.8-1 2.4-2.6 1.7-4h-1.3c.8 1.2.4 2.6-1.2 3.5a8.6 8.6 0 01-7.8 0c-1.6-1-2-2.3-1.3-3.4h-1.3c-.7 1.3-.1 2.8 1.7 3.9z" fill="#EF567F"/><path d="M499 694.2V694.8l-.1.2-.1.2-.1.1-.2.3-.1.2a3.7 3.7 0 01-.6.5l-.2.2-.2.1-.3.2-.6.3h-.2l-.5.3h-.2a3 3 0 01-.4.1l-.2.1h-.4l-.2.1-.8.1h-.3l-.4.1h-.7-.3-1l-.3-.1h-.3l-.3-.1-.4-.2h-.3l-.7-.3a2 2 0 01-.3-.1h-.2l-.5-.3c-1.3-.8-2-1.8-2-2.8v13.2c0 1 .7 2 2 2.8l.5.2.2.1.3.2a8.9 8.9 0 00.8.2h.1l.5.2H490.7l.2.1h.8l.3.1h1.6l.8-.2h.6l.3-.1.4-.2h.1l.6-.2.2-.1.6-.3.3-.2.2-.1.2-.2.2-.2.3-.2.1-.2.1-.1.1-.2.1-.1.1-.3.1-.1v-.3l.1-.1v-.3-.1l.1-13.3v.2z" fill="#E8486A"/></g></svg>