<svg xmlns="http://www.w3.org/2000/svg" style="isolation:isolate" viewBox="647.7 502.2 97.7 87.8"><path d="M648.4 556.4l39.4-22.5c1-.6 2.8-.6 3.8 0l52.7 31c1 .6 1 1.6 0 2.1l-39.4 22.5c-1 .6-2.8.6-3.8 0l-52.7-31c-1-.5-1-1.5 0-2z" opacity=".1"/><path d="M653.2 550l44.8 26.2 37.5-21.4-44.8-26.3-37.5 21.4z" fill="#42E8CF"/><path d="M648 550c0 .2.1.2.2.3l.2.3.2.1.1.1 52.7 31v2.7l-52.7-31h-.1l-.2-.2-.2-.2-.1-.1v-.2h-.1v-.1V549.8v.3z" fill="#C3C5C5"/><path d="M688.2 526.2c1-.6 2.7-.6 3.7 0l52.7 31c1 .5 1 1.5 0 2.1l-39.4 22.5c-1 .6-2.7.6-3.8 0l-52.7-31c-1-.5-1-1.5 0-2.1l39.5-22.5zm9.8 50l37.5-21.4-44.8-26.3-37.5 21.4 44.8 26.3zm25.7-7.8c1-.6 1-1.6 0-2.2-1-.6-2.8-.7-3.9 0-1 .6-1 1.6 0 2.2 1 .6 2.8.6 3.9 0z" fill="#E6E7EC"/><path d="M701.4 581.8l.6.2.1.1h.3l.3.1h1.6l.4-.2.5-.2 39.4-22.5c.5-.3.8-.7.8-1v2.6c0 .4-.3.8-.8 1.1l-39.4 22.5-.4.2-.3.1h-.1-.1-.1l-.3.1h-.1-.4-.1-1.1l-.2-.1-.5-.3v-2.7z" fill="#C3C5C5"/><path d="M663 552.1l43 25 31.7-18.3-43-25-31.6 18.3z" opacity=".1"/><path d="M687 529.7l50.9 29.5-34.6 20-50.8-29.6 34.5-20z" fill="#FFF" opacity=".3"/><path d="M687 525l50.9 29.6-34.6 20-50.8-29.5 34.5-20z" fill="#FFF" opacity=".3"/><path d="M687 520.5L738 550l-34.6 20-50.8-29.5 34.5-20z" fill="#FFF" opacity=".2"/><path d="M687 516l50.9 29.5-34.6 20-50.8-29.6 34.5-20z" fill="#FFF" opacity=".1"/><path d="M687 511.3L738 541l-34.6 20-50.8-29.6 34.5-20z" fill="#FFF" opacity=".1"/><path d="M687 506.8l50.9 29.5-34.6 20-50.8-29.6 34.5-20z" fill="#FFF" opacity=".1"/><path d="M724.5 567.3c0 .9-1.2 1.7-2.7 1.7-1.6 0-2.8-.8-2.8-1.8 0-.9 1.2-1.6 2.8-1.6 1.5 0 2.7.7 2.7 1.6z" fill="#42E8CF"/><path d="M730.3 557.1l-21.5 12.5-44.5-25.7 21.5-12.4 44.5 25.6z" opacity=".2"/><path d="M670.6 545.3l17.9-10.3v-14.6l-17.8 10.4v14.5z" fill="#B2C5D8"/><clipPath id="a"><path d="M689.9 517.4l-17.8 10.3c-.9.5-1.4 1.6-1.4 3.1l17.8-10.4c0-1.5.5-2.5 1.4-3z" fill="#FFF"/></clipPath><g clip-path="url(#a)"><path d="M670.7 530.8l17.8-10.4c0-1.5.5-2.5 1.4-3l-17.8 10.3c-.9.5-1.4 1.6-1.4 3.1z" fill="#B2C5D8"/></g><path d="M706.8 566.2l17.8-10.4v-15.5L707 550.7v15.5z" fill="#B2C5D8"/><path d="M688.8 515.5a3.2 3.2 0 01.3-.2H689.4l.1-.1H691.2l.4.2h.1l.7.4 27.2 15.7a5 5 0 01.6.4l.3.2.2.2.3.2.2.2h.1l.1.2.4.4.1.2.2.2.2.2v.1l.2.2.1.2.2.2v.1l.1.1.3.4v.2l.2.3.1.1v.2l.1.1.2.4.3.5V537.3l.1.2v.2a6.6 6.6 0 00.2.3v.5l.1.1v.2l.1.4V539.8l.1.5-17.8 10.4v-.6-.2l-.1-.3v-.4l-.1-.3v-.3l-.2-.3v-.3l-.2-.4v-.1l-.3-.6c0-.2-.2-.4-.3-.5v-.2l-.3-.4v-.1l-.4-.6v-.1l-.3-.4-.2-.2-.2-.3-.2-.2-.2-.2-.3-.4-.2-.2-.2-.2a3.5 3.5 0 00-.5-.4l-.3-.2-.1-.1a5 5 0 00-.5-.3l-27.2-15.7a5.5 5.5 0 00-1.2-.5h-.2l-.2-.1h-.3-.2-.7-.4l-.4.3 17.8-10.4z" fill="#E6E7EC"/><g><path d="M674.6 526.2c-2.8-1.7-5.1-.3-5.1 3v15.4l1.1.7v-14.5c0-3 2.2-4.3 4.9-2.8l25.4 14.7c2.6 1.5 4.8 5.3 4.8 8.3v14.5l1.1.7v-15.5c0-3.3-2.2-7.2-5-8.9l-27.2-15.6z" fill="#8BA6BC"/></g><g><path d="M689 523.2l-1.6-.9v-7.6l1.5.9v7.6z" fill="#ED8001"/><path d="M689 515.6l-1.7-1 5.1-2.9.3.2 1 .7h.3l-5 3z" fill="#FACD00"/><path d="M694 512.6v7.7l-5 3v-7.7l5-3z" fill="#FCA922"/><path d="M693.6 512.6l-4.7 2.7-1-.6 4.8-2.7 1 .6z" fill="#E7E8E9"/><path d="M692.6 511.9l-4.6 2.8h-.2l4.9-2.8z" fill="#FCA922"/><g><path d="M691 524.2l-1.7-1v-7.6l1.6 1v7.6z" fill="#4B6E21"/><path d="M690.9 516.5l-1.6-.9 5-3 .3.2v.2l1 .5h.1l.3.1-5.1 3z" fill="#80B134"/><path d="M696 513.6v7.7l-5 2.9-.1-7.7 5-2.9z" fill="#5B7F2A"/><path d="M695.6 513.5l-4.7 2.8-1.1-.7 4.8-2.6 1 .5z" fill="#E7E8E9"/><path d="M694.6 512.8v.2l-4.7 2.7h-.1l4.8-2.9z" fill="#5B7F2A"/></g></g><g><path d="M710.7 528.3c-.8.4-.8 1.1 0 1.6.8.4 2 .4 2.8 0 .7-.5.7-1.2 0-1.6a3 3 0 00-2.8 0z" fill="#F9739C"/><path d="M710.7 529.9c.8.4 2 .4 2.8 0 .7-.5.7-1.2 0-1.6a3 3 0 00-2.8 0c-.8.4-.8 1.1 0 1.6zm.3-1.5c.6-.4 1.6-.4 2.2 0 .6.4.6 1 0 1.3-.6.4-1.6.4-2.3 0-.6-.4-.6-1 0-1.3z" fill="#EF567F"/><path d="M713.2 526.2h.1v.1H713.7l-.7 5.6h-.1v.1h-.2-.1v-.1l.7-5.7z" fill="#5B7F2A"/><path d="M713.3 526.1c-.1 0-.1.1 0 .2h.3v-.2h-.3z" fill="#4B6E21"/><path d="M710 526.5c0 .1 0 .1.1 0h.2l1.8 5.4v.1h-.1-.1-.1l-1.8-5.5z" fill="#5B7F2A"/><path d="M710 526.4v.2l.3-.1c.1 0 0-.2 0-.2l-.3.1z" fill="#4B6E21"/><path d="M711.6 525.7v.1H712l.1 5.7h-.1-.1-.1-.1v-5.8z" fill="#2F6680"/><path d="M711.6 525.6v.2h.3c.1 0 .1-.1 0-.2h-.3z" fill="#4EAAD5"/><path d="M710.8 525.8h.4l.6 5.6v.1h-.1-.1-.2l-.6-5.7z" fill="#770F13"/><path d="M710.9 525.7c-.1 0 0 0 0 .1h.3v-.2h-.3z" fill="#C51820"/><g><path d="M712.6 526.6v.1H713l-.1 4.8v.1h-.2-.1l.1-5z" fill="#770F13"/><path d="M712.7 526.5c-.1 0-.1.1 0 .2h.2s.1-.1 0-.2h-.2z" fill="#C51820"/></g><g><path d="M711.8 526.6H712.2l.1-.1.9 5.6v.1h-.1-.1-.1-.1l-.9-5.7z" fill="#ED8001"/><path d="M711.9 526.4c-.1.1 0 .2 0 .2h.3v-.2h-.3z" fill="#FCA922"/></g><path d="M713.5 529.9a3 3 0 01-2.8 0c-.5-.4-.7-.8-.5-1.2h.4c-.2.4-.1.8.4 1 .6.4 1.6.4 2.2 0 .5-.2.6-.6.4-1h.4c.1.4 0 .8-.5 1.2z" fill="#EF567F"/><path d="M710.1 529.1v.2l.1.1v.1h.1l.1.2h.1l.1.1.3.2H711.2l.1.1H713l.3-.1h.1l.1-.1c.4-.3.6-.6.6-.9v3.9c0 .3-.2.6-.6.8h-.1l-.1.1h-.3v.1h-.1-.1-.1-.1-.1-.1-1-.2l-.2-.1-.2-.1-.1-.1-.1-.1-.1-.1-.1-.1-.1-.1v-.1-.1-4 .1z" fill="#E8486A"/></g><g opacity=".1"><path d="M707.6 532.5L699 537l-12.2-7.5 8.2-4.8 12.6 7.8z"/></g><g><path d="M707 531.8c-.2.4-6.5 3.7-6.5 3.7a2 2 0 01-1.6 0l-11.2-6.5c-.4-.3-.5-.9-.1-1.1l6.5-3.6s13.7 4 12.8 7.5z" fill="#C4C4C4"/><path d="M707 531.5l-6.5 3.8c-.4.2-1.2.2-1.6 0l-11.3-6.6c-.4-.3-.4-.6 0-.9l6.5-3.8 12.9 7.5z" fill="#F6F8F8"/><path d="M708.7 522.5v-.1l-.1-.2v-.1h-.1v-.2h-.1l-.1-.1-.2-.1-11.3-6.5-.1-.1h-.1-.1.7l11.3 6.5.1.1.1.1v.1h.1v.1l.1.1v.2l.1.2v.4l-2 9h-.3l2-9v-.1-.2z" fill="#F6F8F8"/><path d="M696.8 515.1c-.3-.2-.7 0-.8.5L694 524l12.6 7.7 2-8.8c0-.4-.2-1-.5-1.2l-11.4-6.6z" fill="#E2E2E2"/><path d="M708.2 523.2l-12-6.9-1.6 7.3 11.9 7.2 1.7-7.6z" fill="#42E8CF"/><path d="M693.7 525.2l11.4 6.6-3.8 2.2-11.4-6.6 3.8-2.2zm4.9 7l.5-.4-5.3-3-.5.3 5.3 3zm-3.4-4.3l-.5.3.5.3.5-.3-.5-.3zm-1.7-.3l.5-.3-.4-.3-.5.3.4.3zm6.5 3.7l.5-.3-.5-.3-.5.3.5.3zm-1.6-1.5l-.5.3.5.3.5-.3-.5-.3zm3.2 2.4l.5-.3-.4-.2-.6.3.5.2zm-5.3-3l.5.2.5-.3-.5-.2-.5.3zm0-.7l-.5.4.4.2.5-.3-.4-.3zm6.4 4.4l.5-.4-.5-.2-.5.3.5.3zm-9.7-5.6l.5-.3-.5-.3-.5.3.5.3zm4.9 2.2l-.5.3.5.3.5-.4-.5-.2zm-3.3-1.3l.5-.3-.4-.3-.6.3.5.3zm5 2.2l-.6.3.5.3.5-.3-.5-.3zm1.5 1.5l.5-.3-.5-.3-.5.3.5.3zm-1 1.2l.6-.3-.5-.3-.5.3.5.3zm-7.3-5.1l.5-.3-.4-.3-.5.3.4.3zm5 2.2l-.6.3.5.3.5-.3-.5-.3zm-1.9-2.7l-.5.3.5.3.5-.3-.5-.3zm-1.6-.4l.5-.3-.5-.2-.5.3.5.3zm2.3 2.4l-.5-.2-.5.3.5.3.5-.4zm.4-.8l.5.3.5-.3-.5-.3-.5.3zm-2.5-.4l-.5.3.5.3.5-.3-.5-.3zm-2.4.1l.5-.3-.4-.3-.6.3.5.3zm7 1l-.5.3.5.3.5-.4-.5-.2zm1.8 3.2l.5-.3-.5-.2-.5.3.5.2zm-1.6-.9l.5-.3-.5-.3-.5.3.5.3zm1.4-.8l.5-.3-.5-.3-.5.3.5.3zm1.6 1l.5-.4-.4-.3-.5.3.4.3zM697 528l-.5.3.5.3.5-.3-.5-.3zm3.4 4.2l.5-.3-.5-.2-.5.3.5.2zm1.4-.8l.5-.3-.5-.3-.5.3.5.3zm-4.6-1.6l-.5.3.4.3.5-.3-.4-.3zm-1.9-2.1l.5-.3-.4-.3-.5.3.4.3zm3.3 1.3l-.5.3.5.2.5-.3-.5-.2zm-4.7-.5l.5-.3-.4-.3-.6.3.5.3zm1.7.4l-.6.3.5.2.5-.3-.4-.2zm-2.4 0l.5-.3-.5-.3-.5.4.5.2zm5.6 1.8l-.5.3.5.3.5-.3-.5-.3zm1.4-.8l-.5.3.5.3.5-.3-.5-.3zm1 3.7l.6-.3-.5-.3-.5.3.5.3zm-9.6-5.6l.5-.3-.5-.3-.5.3.5.3zm.7-.4l.5-.3-.5-.3-.5.3.5.3zm9.7 5.6l.5-.3-.5-.3-.5.3.5.3zm-8.3-6.5l.5-.3-.4-.2-.5.3.4.2zm6 6l.5-.3-.5-.3-.5.3.5.3zm3.7-.4l.5-.3-.4-.2-.6.3.5.2zm-11-5.5l.6-.3-.5-.2-.5.3.5.2zm6.6 3.2l-.5.3.4.3.5-.3-.4-.3zm1.5 1.5l.5-.3-.4-.3-.5.3.4.3zm-6.4-3.7l.5-.3-.5-.3-.5.3.5.3zm1.6.3l-.5.3.5.3.5-.3-.5-.3zm6.4 4.3l.6-.3-.5-.2-.5.3.4.2zm-5.3-3l.5.2.5-.3-.4-.2-.6.3zm6 2.6l.6-.3-.5-.3-.5.4.5.2zm-11-4.7l.5-.3-.5-.3-.5.3.5.3zm9.7 5.6l.5-.3-.5-.3-.5.3.5.3zm-6.5-4.3l-.5.3.5.2.5-.3-.5-.2zm-.2-1.2l.5-.3-.5-.3-.5.3.5.3zm1.7.3l-.6.3.5.3.5-.3-.4-.3zm2.6 4.6l.5-.3-.4-.2-.6.3.5.2zm-8-4.6l.4-.3-.4-.3-.5.3.4.3zm8.7 4.2l.5-.3-.4-.3-.5.4.4.2zm-6.4-3.7l.5-.3-.5-.3-.5.3.5.3zm7.9 2.9l.5-.3-.5-.3-.5.3.5.3zm-.6 2.2l.5-.3-.4-.3-.5.3.4.3zm-1-3.7l-.5.3.4.3.5-.3-.4-.3zm-7-1l.5-.3-.5-.3-.5.3.4.3zm4.8.4l.5.2.5-.3-.4-.2-.6.3zm-.4.8l-.5-.3-.5.3.5.3.5-.3zm-4-3.4l.6-.3-.5-.2-.5.3.5.2zm5.2 4l-.5.3.4.3.5-.3-.4-.3zm-.5-2.6l-.4.2.5.3.3-.2-.4-.3zm3.4 2l-.4.2.5.2.4-.2-.5-.2zm-6.7-3.9l-.3.2.4.3.4-.2-.5-.3zm2 1.2l-.4.2.5.3.4-.3-.5-.2zm-.7-.5l-.4.3.5.2.4-.2-.5-.3zm7.4 4.3l-.4.2.5.3.3-.2-.5-.3zm.7.4l-.4.2.5.3.4-.2-.5-.3zm-1.9-.6l.4-.3-.5-.2-.4.2.5.3zm-8-4.7l.3-.2-.5-.3-.3.2.4.3zm4.5 2.2l-.4.2.5.3.4-.2-.5-.3z" fill="#EBFAFF"/><path d="M697.5 528.4l-.5.3-.5-.3.5-.3.5.3zM693.7 526.2l-.5.3-.5-.2.5-.3.5.2zM695.8 527.5l-.5.3-.4-.3.5-.3.4.3zM694.4 528.3l-.5.3-.5-.3.6-.3.4.3zM694.3 525.9l-.4.2-.4-.3.3-.2.5.3zM695 526.3l-.4.2-.4-.3.3-.2.5.3zM694.2 526.5l-.5.3-.5-.2.6-.3.4.2zM693 526.6l-.5.3-.5-.2.5-.3.5.2zM694.8 526.9l-.5.3-.5-.3.5-.3.5.3zM696.3 527l-.4.2-.5-.2.4-.3.5.3zM693.5 527l-.5.3-.5-.3.5-.3.5.3zM692.3 527l-.5.4-.5-.3.5-.3.5.3zM695.3 527.2l-.5.3-.5-.3.5-.3.5.3zM694 527.3l-.5.3-.4-.3.5-.3.4.3zM697 527.4l-.4.2-.4-.2.3-.2.5.2z" fill="#72B5D3"/><path d="M692.8 527.4l-.5.3-.5-.3.5-.3.5.3zM691.5 527.5l-.5.3-.4-.3.5-.3.4.3zM694.6 527.6l-.5.3-.5-.3.5-.3.5.3zM693.3 527.7l-.5.3-.4-.3.5-.3.4.3zM696.4 527.8l-.5.3-.5-.3.5-.3.5.3zM695.1 527.9l-.5.3-.5-.3.6-.3.4.3zM693.9 528l-.5.3-.5-.3.5-.3.5.3zM698.2 528.2l-.3.2-.5-.3.4-.2.4.3zM697 528.1l-.6.3-.5-.3.6-.3.4.3zM695.7 528.2l-.5.3-.5-.3.5-.3.5.3zM693.2 528.4l-.6.3-.4-.3.5-.3.5.3zM699 528.6l-.4.2-.5-.3.4-.2.5.3z" fill="#72B5D3"/><path d="M696.2 528.5l-.5.3-.5-.3.5-.3.5.3zM695 528.6l-.5.3-.5-.3.5-.3.5.3zM698 528.7l-.5.3-.5-.3.5-.3.5.3zM693.7 528.7l-.5.3-.5-.3.5-.3.5.3zM695.5 529l-.5.2-.5-.3.5-.2.5.2zM698.5 529l-.5.3-.5-.2.6-.3.4.2zM697.3 529.1l-.5.3-.5-.2.5-.3.5.2zM696 529.2l-.5.3-.5-.2.6-.3.4.2zM699 529.3l-.4.3-.5-.2.5-.3.5.2zM697.8 529.5l-.5.2-.5-.2.6-.3.4.3zM696.6 529.5l-.5.4-.5-.3.5-.3.5.3zM699.6 529.6l-.5.4-.5-.3.5-.3.5.3zM698.4 529.8l-.5.3-.5-.3.5-.3.5.3z" fill="#72B5D3"/><path d="M697.1 529.9l-.5.3-.5-.3.5-.3.5.3zM700.1 530l-.5.3-.4-.3.5-.3.4.3zM701.6 530.1l-.3.2-.5-.2.4-.2.4.2zM698.9 530l-.5.4-.5-.3.5-.3.5.3zM697.6 530.2l-.5.3-.4-.3.5-.3.4.3zM700.7 530.3l-.5.3-.5-.3.5-.3.5.3zM699.4 530.4l-.5.3-.4-.3.5-.3.4.3zM702.4 530.5l-.4.3-.5-.3.4-.2.5.2zM698.2 530.5l-.5.3-.5-.3.5-.3.5.3zM701.2 530.6l-.5.3-.5-.3.6-.3.4.3zM700 530.7l-.5.3-.5-.3.5-.3.5.3zM698.7 530.8l-.5.3-.5-.3.6-.3.4.3zM701.8 530.9l-.5.3-.5-.3.5-.3.5.3z" fill="#72B5D3"/><path d="M700.5 531l-.5.3-.5-.3.5-.3.5.3zM699.3 531.1l-.5.3-.5-.3.5-.3.5.3zM703.6 531.3l-.3.2-.5-.3.4-.2.4.3zM702.3 531.2l-.5.3-.5-.3.5-.3.5.3zM701 531.3l-.5.3-.4-.3.5-.3.4.3zM702.8 531.5l-.5.3-.4-.3.5-.3.4.3zM704.3 531.7l-.3.2-.5-.3.4-.2.4.3zM701.6 531.6l-.5.3-.5-.3.5-.3.5.3zM700.3 531.7l-.5.3-.4-.3.5-.3.4.3zM703.4 531.8l-.5.3-.5-.3.5-.2.5.2zM699 531.8l-.4.3-5.3-3 .5-.3 5.3 3zM702.1 532l-.5.2-.5-.2.6-.3.4.2zM700.9 532l-.5.3-.5-.2.5-.3.5.2zM704 532.1l-.6.3-.5-.2.6-.3.4.2zM699.6 532.1l-.5.3-.5-.2.6-.3.4.2zM702.7 532.2l-.6.3-.4-.2.5-.3.5.2zM701.4 532.4l-.5.2-.5-.2.6-.3.4.3zM700.2 532.5l-.5.3-.5-.3.5-.3.5.3zM703.2 532.5l-.5.4-.5-.3.5-.3.5.3zM702 532.7l-.5.3-.5-.3.5-.3.5.3z" fill="#72B5D3"/><path d="M700.7 532.8l-.5.3-.5-.3.5-.3.5.3zM702.5 533l-.5.3-.5-.3.5-.3.5.3zM701.2 533l-.5.4-.4-.3.5-.3.4.3zM701.8 533.4l-.5.3-.5-.3.5-.3.5.3zM696.8 528.8l-.6.3-.4-.3.5-.3.5.3zM699.8 531.4l-.5.3-.5-.3.5-.3.5.3zM692.6 528.1l-.5.3-.5-.3.6-.3.4.3zM692 527.8l-.4.3-.5-.3.5-.3.5.3z" fill="#72B5D3"/><g><path d="M696 531.2c.1.1.1.3 0 .4l-1 .6h-.7l-1.4-.8c-.2-.1-.2-.3 0-.4l1-.6h.6l1.5.8z" fill="#72B5D3"/></g><g><path d="M696 531.3v.3l-1 .6h-.7l-1.4-.8c-.2 0-.2-.3 0-.4l1-.6h.6l1.5.9z" fill="#A9D6EA"/></g></g><g><path d="M676 560.8v.4l.1.2v.2a2 2 0 00.3.3l.1.3h.1l.3.4.1.1.2.2.2.1.3.2.2.1.6.4h.2l.6.3h.2l.3.1h.3l.3.2h.3l.7.1H684.4l.3-.1h.3l.4-.1.2-.1c.3 0 .5-.2.8-.3h.3l.2-.2.5-.2c1.3-.8 2-1.8 2-2.8v1.3c0 1-.7 2-2 2.8l-.5.2h-.2l-.3.2-.8.3h-.2l-.4.1h-.1-.2l-.3.1h-.2-.1l-.4.1h-.1-.2-.3-.2-.5-.7-1l-.3-.1-.3-.1h-.3l-.3-.2h-.1-.1l-.6-.3h-.2l-.6-.4-.2-.1-.3-.2-.1-.1-.3-.2a2.8 2.8 0 01-.4-.5l-.2-.3-.1-.1-.1-.2v-.2l-.1-.2v-.1-.3l-.1-.1v-1.3.1z" fill="#292929"/><path d="M678 557.9c-2.7 1.5-2.7 4 0 5.4 2.5 1.6 6.7 1.6 9.3 0 2.7-1.5 2.7-4 0-5.4a10.4 10.4 0 00-9.4 0z" fill="#343434"/><path d="M674 527c1.5 0 2.5 4.8 4 8.6l7-3.1c.3-.4 1-1.2 1.1-1.7.4-.6.7-.7.8-.6.2 0 0 .4 0 .7 0 .3-.5.9-.2.8.4 0 2.2-1.1 2.6-.8.2.2.6 0-.5 1.3-.8 1-2.1 1.5-2.8 1.7-3.4 3.3-8.2 5.2-8.2 5.2-.5.2-1.1 0-1.1 0-2.4-2-3.6-5.8-4-9.3-.4-2.6 1.3-2.8 1.3-2.8z" fill="#EFB185"/><path d="M674.5 526.7c-.7-.2-2.2 0-2.2 2.3 0 2.4.1 3.2.9 5.1.4 1 3.2.5 4-1 .4-1-1.1-5.9-2.7-6.4z" fill="#CACE7A"/><path d="M693.3 554s1.2.5.7 1.1c-.4.6-2 1.5-2.2 1.9-.3.4-1.7 1.8-2 1.6-.4-.2-1.4-.2-1-2 .4-1.8 2.9-2.9 4.5-2.5z" fill="#111114"/><path d="M693.7 541.5s1.9.8-.4 10.5l-1.1 5s-1.3 1.9-3.9 0l1.3-10.5 4-5z" fill="#252625"/><path d="M691.7 559s-.8 1.7.6 2.3c1.5.5 1.1-.4 4.3.7 3.1 1.2 3.7-.5 3.7-.8 0-.4-2.2-1.3-2.8-1.6l-2-.7-3.9-.4v.5z" fill="#111114"/><path d="M691.7 559s-.8 1.7.6 2.3c1.5.5 1.1-.4 4.3.7 3.1 1.2 3.7-.5 3.7-.8 0-.4-2.2-1.3-2.8-1.6l-2.6-1-3.3-.1v.5z" fill="#111114"/><path d="M697 544s1.4.7-.8 10l-1.1 5.1s-1.3 1.9-3.9 0l1.3-10.6 4.5-4.5z" fill="#252625"/><path d="M692.3 550.3l1.2-.6-1.1 10c-.4 0-.8-.3-1.2-.6l1-8.8zM689 552.4l1.5-1.5-1.3 6.7a5 5 0 01-.9-.6l.6-4.6z" fill="#323433"/><path d="M681.4 560.5c0 .2.1.4.4.5l.2.1h.2l.1.1H683.1a1.3 1.3 0 00.4-.2h.1l.1-.2.1-.1V553.5v.1c0-.2 0-.4-.3-.6a2 2 0 00-1.7 0c-.2.1-.3.3-.3.5v7zm2.1-6.4zm.3-.4v.1zm0 .2z" fill="#111114"/><path d="M684 555.1l.1-.1.1-.1.1-.1v-.1l.4-.3.4-.4h.1l.5-.4h.1l.5-.4.7-.5.1-.1.6-.4h.1l.7-.5h.2l.8-.5 1-.6h.1l1-.6.9-.4.8-.4.5-.2h.1l.4-.1.2-.1H694.8l-10.1-6h-.1-.1-.1l-.2.1a10.9 10.9 0 00-2.6 1.1l-.2.1-1 .5-1.1.7-.8.4-.1.1-.8.5-.6.4-.2.1-.6.4h-.1l-.5.4v.1l-.6.3v.1l-.4.3-.4.4-.1.1-.1.1v.1h-.1V549.5l10.2 6-.1-.1v-.2z" fill="#FFF"/><path d="M689.5 551.2c3-1.8 5.5-2.8 5.5-2.3s-2.5 2.3-5.5 4c-3 1.8-5.5 2.8-5.5 2.3s2.5-2.3 5.5-4z" fill="#D9D9D9"/><path d="M674.8 546.8s.3 4.8 5.6 3.4c5.3-1.5 9-3 9-3s6.7-4.6 4-5.8c0 0-2.4-2.4-18.6 5.4z" fill="#29383D"/><path d="M674.8 546.8s.3 4.8 5.6 3.4c5.3-1.5 9-3 9-3s6.7-4.6 4-5.8c0 0-2.4-2.4-18.6 5.4z" fill="#252625"/><path d="M677.7 548.9s.3 4.8 5.6 3.4c5.3-1.5 11.3-4.6 11.3-4.6s4.4-3 1.8-4.2c0 0-2.5-2.4-18.7 5.4z" fill="#252625"/><path d="M696.4 543.5c.6.3.8.7.8 1.2-4.1 0-13.3 3.1-13.3 3.1l-.1-1.7c10.7-4.4 12.6-2.6 12.6-2.6zM693.3 541.2c.6.3.9.7.9 1.1-4.2 0-13.4 3.2-13.4 3.2v-1.7c10.7-4.4 12.5-2.6 12.5-2.6z" fill="#323433"/><path d="M674 526.3s-2.2 1.2-.8 5c1.3 3.9 2.3 6.4 2.3 7.8-.1 1.4-.5 6.3-.8 7.3 0 0-.3 3.2 7 5 0 0 6 .4 4.9-3.5-1-4-1.6-10.3-1.5-11.8.2-1.5 1-4.6-2.8-6.5-3.8-2-5.8-3.5-8.3-3.3z" fill="#EBF2A5"/><path d="M685.1 536.1c0 1.5.4 7.9 1.5 11.8.7 2.7-2 3.3-3.6 3.4-.6-1.7.3-4.9-1-8.7a15.9 15.9 0 01-.8-10.4c.5-1.6 1.5-1.7 2.2-2 2.5 2 1.9 4.5 1.7 5.9z" fill="#CACE7A"/><path d="M676.7 524.4s.3 2-.4 3.3c-.6 1.1 4.2 2 4.3 1 0-.1-1-1.8.1-4 .6-1-4-.3-4-.3z" fill="#EFB185"/><path d="M676.3 527.7a6 6 0 00.5-3l3.5 1.7c-.2 0-2.5.7-3 2.4-.7-.3-1.2-.7-1-1z" fill="#DD9569"/><path d="M681.6 519s.8 1.7.7 3.3c-.2 1.7 0 2 0 2.8 0 .3 0 .8-.4 1.1-.5.5-1.6.7-3 .2-1.8-.6-3.7-3-3-5.2.7-2.2 3-4 5.7-2.3z" fill="#EFB185"/><path d="M676 523.6c.7-2 2.4-4.4 2.4-4.5l1.2-.9a4 4 0 012 .7l.4 1.2c-.4.5-1.3 1-1.4 1.4-.3 1 0 2.4.2 3 .3.6-.8 1.6-.6 2.1v.1a5 5 0 01-1.3-.3 5.1 5.1 0 01-2.9-2.8z" fill="#E6A376"/><path d="M681.7 518.5s.3 1.3-.8 2c-1 .5-.9 2-.8 2.3 0 .2.4 1.5.2 1.7-.2.3-1-.7-1.3-.6-.8.2-.5 1 .3 1.8 1 1-1.3 1.3-2.4.6-.5-.4-.7-.6-1.5-2-1-2.1-1.2-4.6 1.3-6 2.4-1.4 4-.3 5 .2z" fill="#221101"/><path d="M677 526.3c-.6-.4-1-.5-1.8-2-1-2-1.4-5.5 1.5-6.5 2.6-.9 4.4.2 5 .7v.6c-.8.1-2.5.3-3 1.2-.7 1.2-1.5.8-1.4 2.2.1 1.4-.2 3.2 2 3.9-.8.6-2 .2-2.4 0z" fill="#341C09"/><path d="M680.3 528l1.6 1.3s-4.8 1.5-6.3-.8c-.2-.4 0-1.5.9-1.7 0 0 .2 2 3.8 1.3z" fill="#CACE7A"/><path d="M683.1 530.5c1.5 0 2.5 4.8 4 8.6l7-3.1 1.2-1.6c.3-.7.6-.8.8-.7l-.1.7c0 .3-.5.9-.1.8.3 0 2-1 2.5-.8.3.2.6 0-.5 1.3-.8 1-2.1 1.5-2.8 1.7a29.3 29.3 0 01-8.2 5.2c-.5.2-1 0-1 0-2.4-1.9-3.7-5.7-4.2-9.3-.3-2.6 1.4-2.8 1.4-2.8z" fill="#EFB185"/><path d="M683.7 530.3c-.8-.3-2.3-.1-2.3 2.3 0 2.3.1 3.1 1 5 .3 1 3.1.5 3.9-1 .4-.9-1.1-5.9-2.6-6.3z" fill="#EBF2A5"/><path d="M681.3 541.4c.3-.4 1.2 2.5 1.9 6.4.8 3.9 1.1 7.3.8 7.6-.3.3-1.2-2.6-2-6.4-.7-4-1-7.3-.7-7.6z" fill="#D9D9D9"/><g><path d="M671 534.5v-.1-.1-.1h.2l10.2 7.2h-.1V541.8c-.2 1 .2 4 .8 7.2a22 22 0 001.8 6.5l-10-6c-.4-.2-1.3-4.2-2-7.6-.6-3.3-1-6.3-.9-7.3z" fill="#FFF"/></g></g></svg>