<svg xmlns="http://www.w3.org/2000/svg" style="isolation:isolate" viewBox="659.7 260.2 92.3 89.4"><path d="M751 310.6c1.3.8 1.3 2 0 2.8l-2.7 1.6-49.6 29-4.1 2.4c-1.3.8-3.5.8-4.9 0l-29-16.6c-1.3-.7-1.3-2 0-2.8l56.4-33c1.4-.8 3.5-.8 4.9 0l29 16.6z" opacity=".1"/><path d="M747.9 308.2v.4h-.1s0 .2-.2.3l-.3.3-.2.2-.2.1-2.5 1.5v4.1l2.5-1.4.2-.1.2-.2.3-.2v-.1-.1l.2-.2v-.2-.2-4.1zM694.6 340a4 4 0 01-.6.2h-.3l-.3.2h-1.6a4.3 4.3 0 01-.7 0l-.5-.2-.5-.3-26.8-15.4c-.6-.4-1-.9-1-1.3v4.1c0 .5.4 1 1 1.3l26.8 15.5a5 5 0 00.5.2 3.3 3.3 0 00.5.2h.2l.3.1H693.5l.3-.2h.2l.7-.3 3.8-2.2v-4.2l-3.8 2.2z" fill="#C3C5C5"/><path d="M747 307c1.2.6 1.2 1.8 0 2.5l-2.6 1.5-46 26.7-3.8 2.2a5 5 0 01-4.5 0l-26.8-15.4c-1.2-.8-1.3-2 0-2.6l52.3-30.4a5 5 0 014.5 0l26.8 15.4z" fill="#E6E7EC"/><path d="M713.1 292.9l-46 26.7 31.4 18.1 46-26.7-31.4-18.1z" fill="#42E8CF"/><path d="M736.5 303.2c.3.2.4.6-.1.8-.4.2-.8.3-1.1.1l-9.8-5.5c-.3-.2.1-.6.5-.8.3-.2.8-.2 1.2 0l9.3 5.4z" fill="#65D2E0"/><path d="M736.2 303.4c.3.2.3.5 0 .7-.3.2-.9.2-1.2 0l-9.4-5.4c-.3-.2-.3-.5 0-.7.4-.2 1-.2 1.3 0l9.3 5.4z" fill="#8FEDFF"/><path d="M744.4 311v4.1l-46 26.8v-4.2l46-26.7z" fill="#30C1A9"/><path d="M681.7 329.2c1.2.6 1.2 1.7 0 2.3-1 .7-2.9.7-4 0-1.2-.6-1.2-1.7 0-2.3 1-.7 3-.7 4 0z" fill="#8FEDFF"/><g opacity=".8"><path d="M729.7 290.4a8.3 8.3 0 11-16.6 0 8.3 8.3 0 0116.6 0z" fill="#FFF" opacity=".1"/><path d="M728.2 290.5a6.7 6.7 0 11-13.5 0 6.7 6.7 0 0113.5 0z" fill="#FFF" opacity=".1"/><path d="M726.7 290.6a5.2 5.2 0 11-10.5 0 5.2 5.2 0 0110.5 0z" fill="#FFF" opacity=".1"/><path d="M725.1 290.7a3.7 3.7 0 11-7.3 0 3.7 3.7 0 017.3 0z" fill="#FFF" opacity=".2"/><path d="M723.6 290.8a2.2 2.2 0 11-4.3 0 2.2 2.2 0 014.3 0z" fill="#FFF" opacity=".3"/><path d="M722 290.9a.6.6 0 11-1.2 0c0-.4.3-.6.7-.6.3 0 .6.2.6.6z" fill="#FFF" opacity=".3"/></g><g><path d="M733.4 307.6v8L702 334v-8l31.3-18.3z" fill="#6E0095"/><path d="M702.1 325.8v8l-25.3-14.6v-8l25.3 14.6z" fill="#4D0169"/><path d="M733.4 307.6l-31.3 18.2-25.3-14.6L708 293l25.3 14.6z" fill="#B539DF"/><path d="M725 312.5l-12.3 7.1-24.9-14.8 11.5-6.6 25.8 14.3z" fill="#C256EF"/><path d="M678.4 314v4.4l23.8 13.5v-4.4l-23.8-13.6z" fill="#C5F9FF"/><path d="M702.1 327.5l31.3-17.8v4l-31.3 18.2v-4.4z" fill="#ACECEF"/><path d="M678.4 314l.5.3v3.8l-.5.3V314z" fill="#6E0095"/><path d="M678.4 318.4l23.8 13.5v-.6L679 318l-.6.3z" fill="#6E0095"/><path d="M702.1 331.3l31.3-18.4v.8l-31.3 18.2v-.6z" fill="#4D0169"/></g><g><path d="M729.3 296.9v7.6l-30 17.4v-7.7l30-17.3z" fill="#ED8001"/><path d="M699.4 314.2v7.7l-24.2-14v-7.6l24.2 14z" fill="#FCA922"/><path d="M729.3 296.9l-30 17.3-24.1-14 30-17.3 24 14z" fill="#FACD00"/><path d="M721.3 301.5l-11.7 6.8-23.9-14.2 11-6.3 24.6 13.7z" fill="#FFD67B"/><path d="M676.7 302.9v4.3l22.7 12.8v-4.2l-22.7-13z" fill="#EBEBF0"/><path d="M699.4 315.8l29.9-17v3.8L699.4 320v-4.2z" fill="#A8A8A8"/><path d="M676.7 302.9l.5.3v3.7l-.5.3v-4.3z" fill="#BA4C00"/><path d="M676.7 307.1l22.7 13v-.7L677.3 307l-.6.3z" fill="#BA4C00"/><path d="M699.4 319.4l30-17.5v.7l-30 17.4v-.6z" fill="#BA4C00"/></g><g><path d="M713 292.7l-46 26.7 31.3 18 45.9-26.6-31.3-18.1z" fill="#FFF" opacity=".3"/><path d="M713.1 287.3L666 314.7l32.2 18.6 47.2-27.4-32.2-18.6z" fill="#FFF" opacity=".3"/><path d="M713.4 281.9L664.8 310l33 19 48.6-28.2-33-19z" fill="#FFF" opacity=".2"/><path d="M713.6 276.4l-49.9 29 34 19.6 49.8-29-34-19.6z" fill="#FFF" opacity=".1"/><path d="M713.8 271l-51.2 29.8 34.9 20 51.1-29.7-34.8-20z" fill="#FFF" opacity=".1"/><path d="M714 265.6l-52.5 30.5 35.7 20.6 52.5-30.4-35.7-20.7z" fill="#FFF" opacity=".1"/></g><g><path d="M722.5 317s.2 1.4.9 2.2c.7.8 3.7 2.5 3.6 3.3-.2.8-2.4 1-3.8-.3s-1.8-1.5-2.4-1.6c-.5 0-1.4-.8-.8-2 0 0 1.8-.6 2.5-1.6zM718.8 320s.3 1.5 1.1 2.2c.8.8 4.1 2.4 4 3.3-.1.8-2.4 1.2-4-.1-1.5-1.3-2-1.4-2.5-1.5-.6 0-1.6-.8-1.1-2.1 0 0 1.9-.8 2.5-1.9z"/><path d="M709.7 298s11 5.5 11.8 7.3c1.1 2.7 1 4.6 1 11.3l.1 1.6s-1.3 1.2-2.8.5c-.5-.2-.3-4.6-1.2-7 0 0-.4-3-.2-3.8 0 0-8.8-2.5-11-4.2-2.1-1.7 2.3-5.6 2.3-5.6z" fill="#323433"/><path d="M701 300.9s-1 4 3.8 6c5 2.3 9.3 4.6 9.3 4.6s0 3 .5 4.9l1.6 5.6s2.2.7 3.3-.5c0 0-.6-12-2.1-13.2-1.5-1.3-8.8-6.2-8.8-6.2l1-4-8.7 2.8z" fill="#252625"/><path d="M719.4 284s.4-1.5 1.2-1.9c.8-.4 1.2-.8 2-.8.6 0 .8.4.5.9a5 5 0 01-1.6 1.7c-.8.5-.7.6-.9.9-.1.2-1 .2-1.2-.7z" fill="#F1B287"/><path d="M705 285.4c.3-.7 1.2-1.7 3.1-.8l7.3 3.4s3.6-4.2 4.1-4.6c0 0 0 1.1 1.2 1.3 0 0-2.3 5.7-4.1 6.1-1.9.4-12.5-2.3-11.6-5.4z" fill="#CACE7A"/><path d="M698.8 288.6s1.6-3.1 8.5-4.5c0 0 1-.6 1.2 3 0 .6.6 1.4 1 1.9.3.4 1.4 2.2-.6 4.4 0 0 0 2.6 1.1 4.6 1 1.8-4.1 4.6-8 4.4-.5 0-1.6-.2-1.3-2 .4-1.6 1.2-4.6.2-7.6s-2.5-2.6-2.1-4.2z" fill="#EBF2A5"/><path d="M698.8 288.6c-.4 1.6 1.2 1.1 2.1 4.2 1 3 .1 6-.2 7.7-.3 1.7.8 2 1.3 2 .6 0 1.3 0 2-.2-1.6-2.9-.2-8.4-.3-11.4 0-3.2-3-4.3-3-4.3-1.5 1.1-2 2-2 2z" fill="#EBF2A5"/><path d="M712 294.6s1.2-1 2-1c1 .1 1.5 0 2 .3.7.4.6.8.1 1-.4.4-1.3.6-2.3.6-.9 0-1 .2-1.2.3-.2.1-1-.3-.6-1.2z" fill="#F1B287"/><path d="M699.1 288c.6-.5 1.9-.8 3 1l4.4 6.8s5.3-1.7 6-1.7c0 0-.6 1 .2 1.8 0 0-5 3.5-6.7 2.9-1.8-.7-9.3-8.7-6.9-10.8z" fill="#CACE7A"/><path d="M706.6 283s-1.1 1.8-.3 3.4c.3.4 1 2.2-2 1.9 0 0-3.3-1.2-2.5-2.2.5-.7 1-1.6-.3-4.6l5 1.5z" fill="#E8A476"/><path d="M701.8 286.1v.3c2.8.2 4.4-2 4.4-2l-4-2.7-.4.4c1 2.5.5 3.4 0 4z" fill="#D69061"/><path d="M706 278.1s.9.3 1 2.6c0 .3.4.6.5 1.2.1.7.3 3.3-1.2 3.6-1 .2-3.8-.4-4.7-3-1-2.6 1.2-6 4.5-4.4z" fill="#F1B287"/><path d="M702.9 282.9s-.4-1.3-1.2-1c-.2.2-.5.5 0 1.2.3.6 1 1.2 1.6 1.1l-.4-1.3z" fill="#F1B287"/><path d="M702.7 280.5a3 3 0 00-1.5-1.4 1 1 0 00-.5-.1c-.1 0-.2-1-.3-.9-2.1 1.2-2 7-1.7 7.8.2.7 1 2.4 1.7 2.7 1.7.5 1.8 8 4.9 1.4.5-1.2-2-3.9-2.1-4.3-.3-.7-1-.9-.9-1.6 0-.8 0-2 .7-2.4.8-.3.5-.8.6-.9.1 0 3.7-1 3.8-1.4.2-1-.2-1.4-1-2-1-1-2.9-1.2-4.2-.9-1.2.3-2.3 1.4-2.4 2.6-.2 1.5.2 3.5 2 4.5.7.4-.4-1.3.5-1.3.2 0 .4-.3.5-.5l-.1-1.3z" fill="#A5420B"/><path d="M702.6 282.4c.4.4.6 1 .3 1.2-.2.3-.8.1-1.2-.3-.4-.4-.5-1-.3-1.2.3-.3.8-.1 1.2.3z" fill="#F1B287"/></g><g fill="#E6E7EC"><path d="M719.1 281.2l15.7-9.1v-2l-15.7 9.1v2zM719.1 285.4l15.7-9v-2l-15.7 9.1v2zM719.1 291.2l15.7-9.1v-2l-15.7 9.1v2zM719.1 295.4l15.7-9v-2l-15.7 9.1v2z"/></g><g opacity=".8"><path d="M700.8 339.3a8.8 8.8 0 11-17.6 0 8.8 8.8 0 0117.6 0z" fill="#FFF" opacity=".1"/><path d="M699.1 339.4a7.2 7.2 0 11-14.3 0 7.2 7.2 0 0114.3 0z" fill="#FFF" opacity=".1"/><path d="M697.5 339.5a5.6 5.6 0 11-11 0 5.6 5.6 0 0111 0z" fill="#FFF" opacity=".1"/><path d="M695.9 339.6a4 4 0 11-7.8 0 4 4 0 017.8 0z" fill="#FFF" opacity=".2"/><path d="M694.3 339.7a2.3 2.3 0 11-4.6 0 2.3 2.3 0 014.6 0z" fill="#FFF" opacity=".3"/><path d="M692.6 339.8c0 .4-.3.7-.6.7a.7.7 0 010-1.4c.3 0 .6.3.6.7z" fill="#FFF" opacity=".3"/></g></svg>