<svg xmlns="http://www.w3.org/2000/svg" style="isolation:isolate" viewBox="527.5 255.8 115.1 92.5"><g opacity=".8"><path d="M545.8 286.4a8.4 8.4 0 11-16.8 0 8.4 8.4 0 0116.8 0z" fill="#FFF" opacity=".1"/><path d="M544.2 286.6a6.8 6.8 0 11-13.7 0 6.8 6.8 0 0113.7 0z" fill="#FFF" opacity=".1"/><path d="M542.7 286.6a5.3 5.3 0 11-10.6 0 5.3 5.3 0 0110.6 0z" fill="#FFF" opacity=".1"/><path d="M541.1 286.8a3.7 3.7 0 11-7.5 0 3.7 3.7 0 017.5 0z" fill="#FFF" opacity=".2"/><path d="M539.6 286.9a2.2 2.2 0 11-4.4 0 2.2 2.2 0 014.4 0z" fill="#FFF" opacity=".3"/><path d="M538 287c0 .3-.3.6-.6.6a.6.6 0 01-.6-.6c0-.4.2-.7.6-.7.3 0 .6.3.6.7z" fill="#FFF" opacity=".3"/></g><path d="M535.7 326l30.8 18c2 1 5.8.9 7.8-.3l53.7-31.2c2-1.1 2-3 0-4.1l-31.1-18-61.2 35.6z" opacity=".1"/><path d="M542.6 324.7C543 326.2 569 340 569 340c1.6 1 5 .8 6.7-.2l45.7-26.6c1.7-1 2.2-3.5.6-4.5l-27-14.7s-56 16.7-52.3 30.7z" fill="#C3C5C5"/><path d="M542.5 323.5l26.4 15.4c1.6 1 5 .8 6.7-.2l46-26.8c1.7-1 1.7-2.5 0-3.5L595 293l-52.5 30.6z" fill="#E6E7EC"/><path d="M535.5 286.8a4.4 4.4 0 01.1-.8l.2-.6.3-.6.1-.2.3-.4.5-.5v-.1l.6-.4 46.3-26.7.6-.3h1.1l-1.3-.3h-.5-.1-.2-.2-.1l-.6.2-46.4 26.8-.5.4a5.8 5.8 0 00-.6.6l-.1.2-.1.2-.1.2-.1.1-.2.4-.2.6v.4l-.1.5v1.5l8.4 36.7 1.1.7-8.2-37v-.9-.6-.1z" fill="#C3C5C5"/><path d="M584 256.5c1.4-1 3 0 3.5 1.9l7.5 34.5-51.5 31.2-8-35.8c-.4-2 .5-4.2 2-5l46.4-26.8z" fill="#E6E7EC"/><path d="M537.4 289.3l49-28L593 291l-48.4 29.7-7.1-31.4z" fill="#42E8CF"/><path d="M612.4 306.8l-46.7 27-15.6-9 46.7-27 15.6 9zM576.8 326l21.7-12.6-2-1.2-21.8 12.6 2 1.2zm13.8-17.2l-2 1.1 2.2 1.3 1.9-1.2-2.1-1.2zm6.8-1.5l2-1-2.2-1.3-2 1.1 2.2 1.2zm-26.5 15.3l2-1.1-2.1-1.2-2 1 2.1 1.3zm6.5-6.2l-2 1.2 2.1 1.2 2-1.1-2.1-1.3zm-13 10l1.9-1-2.1-1.3-2 1.1 2.1 1.2zM586 314l-2.1-1.3-2 1.1 2.2 1.3 1.9-1.1zm0-2.5l-1.9 1 2.1 1.3 2-1.1-2.1-1.2zM560 329l2-1.1-2.2-1.3-1.9 1.1 2.1 1.3zm39.7-23l2-1-2.2-1.3-2 1.1 2.2 1.3zm-20 9.2l-2 1 2.1 1.3 2-1.1-2.1-1.2zm13.4-5.3l1.9-1.1-2.1-1.3-2 1.2 2.2 1.2zm-20 9.1l-2 1.1 2.1 1.2 2-1-2.1-1.3zm-6.5 6.1l2-1-2.1-1.3-2 1.1 2.1 1.2zm3.6 4.7l2-1.1-2.1-1.2-2 1.1 2.1 1.2zm30.2-20.8l2-1-2.2-1.3-1.9 1.1 2.1 1.2zm-20 9.1l-2 1.2 2.2 1.2 1.9-1.1-2.1-1.3zm7.4-11l-2 1.1 2.2 1.3 1.9-1.2-2.1-1.2zm6.8-1.5l1.9-1-2.1-1.3-2 1.1 2.2 1.2zm-9.5 9.8l2 1.3 2-1.1-2-1.3-2 1.1zm-1.8-3.3L581 311l-2 1.2 2.1 1.2 2-1.2zm10.3-1.6l-2 1.1 2.2 1.2 2-1-2.2-1.3zm9.7.2l2-1-2.2-1.3-1.9 1.1 2.1 1.2zm-28.8 4l-1.9 1.2 2.1 1.2 2-1.1-2.1-1.3zm-7.2 13.4l2-1.1-2.1-1.2-2 1 2.1 1.3zm6.6-3.8l2-1.1-2.1-1.2-2 1 2.1 1.3zm-5.8-3.4l2-1.1-2.2-1.2-1.9 1 2.1 1.3zm-6.6 3.8l2-1.1-2.2-1.2-1.9 1.1 2.1 1.2zm21.9-15l-2 1 2.1 1.3 2-1.1-2.1-1.2zm-13.9 17.2l2-1.2-2.1-1.2-2 1.1 2.1 1.3zm-5.8-3.4l2-1.2-2.2-1.2-1.9 1.1 2.1 1.3zm18.9-6.6l-2 1 2.2 1.3 1.9-1.1-2.1-1.2zm7.5-8.7l2-1.1-2.1-1.2-2 1 2.1 1.3zm-13.3 5.3l-2 1.1 2.1 1.2 2-1.1-2.1-1.2zm19.2-2l2-1-2.2-1.3-2 1.2 2.2 1.2zm-6.8 1.6l-2 1 2.2 1.3 2-1.1-2.2-1.2zm9.7.2l2-1.2-2.1-1.2-2 1.2 2.1 1.2zm-23 7.4l-1.8 1.1 2 1.2 2-1-2.1-1.3zm-5.8-3.4l-1.9 1.1 2.1 1.2 2-1-2.2-1.3zm-4.3 15l2-1-2.1-1.3-2 1.1 2.1 1.3zm39.7-22.9l2-1-2.1-1.3-2 1.1 2.1 1.3zm-2.9-1.6l2-1.2-2.2-1.2-1.9 1.1 2.1 1.3zm-39.7 22.9l2-1.1-2.1-1.3-2 1.1 2.1 1.3zm33.9-26.3l1.9-1.1-2.1-1.3-2 1.1 2.2 1.3zm-24.4 24.1l2-1-2.1-1.3-2 1.1 2.1 1.2zm-15.3-1.2l2-1.1-2.2-1.3-1.9 1.2 2 1.2zm44.8-22.5l2-1.1-2.2-1.3-2 1.2 2.2 1.2zm-26.6 13l-2 1 2.1 1.3 2-1.2-2.1-1.2zm-6.5 6l2-1-2.2-1.3-1.9 1.1 2.1 1.3zm26.5-15.2l2-1.1-2.2-1.2-2 1 2.2 1.3zm-6.8 1.5l-2 1 2.2 1.3 1.9-1.1-2.1-1.2zM562 327.7l2-1.1-2.1-1.3-2 1.2 2.1 1.2zM584 315l-2.1-1.2-2 1.1 2.2 1.2 1.9-1zM559.2 326l2-1.1-2.2-1.2-2 1 2.2 1.3zm45.5-19.5l2-1.1-2.2-1.2-1.9 1 2.1 1.3zM565 329.4l2-1.1-2.1-1.2-2 1 2.1 1.3zm26.3-17.6l-2 1.1 2.2 1.2 2-1-2.2-1.3zm1-4.9l1.9-1.1-2.1-1.2-2 1 2.2 1.3zm-6.8 1.5l-2 1.1 2.1 1.2 2-1-2.1-1.3zm-11 18.9l2-1.1-2.1-1.3-2 1.2 2.2 1.2zm33.1-19.1l2-1.1-2.1-1.2-2 1 2.1 1.3zm-36 17.4l2-1.1-2.1-1.3-2 1.2 2.1 1.2zm26.5-15.3l2-1.1-2.2-1.2-1.9 1 2 1.3zm-32.3 11.9l2-1.1-2.2-1.3-1.9 1.2 2.1 1.2zm2.2 8.9l1.9-1.1-2.1-1.3-2 1.2 2.2 1.2zm4.2-15l-1.9 1 2.1 1.3 2-1.2-2.2-1.2zM601 312l2-1.1-2.2-1.2-1.9 1 2.1 1.3zm-20 1.4l-2.1-1.2-2 1.1 2.1 1.2 2-1zm1.8 3.3l2 1.2 2-1-2.1-1.3-2 1.1zm16-13.6l2-1.1-2.1-1.2-2 1 2.2 1.3zm-20.7 16.3l-2 1.1 2.2 1.3 1.9-1.2-2.1-1.2zm2-10.7l-2 1 1.5 1 2-1.2-1.5-.8zm-14 8l-2 1.1 1.5.9 2-1.1-1.5-.9zm27.2-15.7l-2 1.1 1.5.9 2-1.1-1.5-.9zm-8 4.7l-2 1.1 1.5.8 1.9-1-1.5-1zm2.9-1.7l-2 1.1 1.5.9 2-1.2-1.5-.8zM558 321.4l-1.9 1.1 1.5.8 1.9-1-1.5-1zm-2.9 1.7l-2 1 1.5 1 2-1.2-1.5-.8zm7.6-2.7l2-1.1-1.5-.9-2 1.1 1.5.9zm33-19.1l2-1.1-1.5-.9-1.9 1.1 1.5.9zm-18.6 9l-1.9 1.2 1.5.8 1.9-1-1.5-1z" fill="#C3C5C5"/><path d="M581.3 310.8l2.1 1.2 2-1.1-2.1-1.2-2 1zM596.8 301.9l2 1.2 2-1.1-2.1-1.2-2 1zM588 307l2 1.2 2-1.1-2.1-1.3-2 1.2zM593.8 310.4l2 1.2 2-1.1-2-1.3-2 1.2zM594.3 300.4l1.5.9 1.9-1.1-1.5-.9-1.9 1.1zM591.4 302.1l1.4.9 2-1.1-1.5-.9-2 1.1zM594.6 303.1l2 1.3 2-1.1-2.1-1.3-2 1.1zM599.7 303.6l2.1 1.2 2-1.1-2.2-1.3-2 1.2zM592.4 304.4l2 1.2 2-1-2.1-1.3-2 1.1zM586.2 305.1l1.5.9 2-1.2-1.5-.8-2 1.1zM597.5 304.8l2.1 1.3 2-1.2-2.2-1.2-2 1.1zM602.6 305.3l2.1 1.2 2-1.1-2.2-1.3-1.9 1.2zM590.2 305.7l2 1.2 2-1.1-2.1-1.2-2 1zM595.3 306.1l2 1.2 2-1-2-1.3-2 1.1zM583.3 306.8l1.5.8 1.9-1-1.5-1-2 1.2zM600.4 306.5l2.1 1.3 2-1.2-2.2-1.2-1.9 1.1zM605.5 307l2.1 1.2 2-1.1-2.1-1.3-2 1.2zM593 307.4l2.2 1.2 1.9-1.1-2.1-1.2-2 1zM598.2 307.8l2.1 1.2 2-1-2.2-1.3-1.9 1.1zM585.8 308.2l2 1.3 2-1.2-2.1-1.2-2 1.1zM590.9 308.7l2 1.2 2-1.1-2.1-1.3-2 1.2zM596 309l2 1.3 2-1.1-2-1.2-2 1zM578.1 309.8l1.5.8 2-1.1-1.5-.8-2 1zM583.5 309.5l2.1 1.2 2-1-2.1-1.3-2 1.1zM588.7 310l2 1.1 2-1-2.1-1.3-2 1.1zM599 310.8l2 1.2 2-1.1-2.2-1.2-1.9 1zM575.2 311.5l1.5.8 1.9-1-1.5-1-1.9 1.2zM586.5 311.2l2 1.2 2-1-2.1-1.3-2 1zM591.6 311.6l2 1.2 2-1-2-1.3-2 1.1zM579.1 312l2.1 1.3 2-1.2-2.1-1.2-2 1.2zM596.7 312l2.1 1.3 2-1.2-2.1-1.2-2 1.2zM589.4 312.9l2 1.2 2-1-2-1.3-2 1.1zM577 313.3l2 1.2 2-1-2.1-1.3-2 1.1zM582 313.8l2.2 1.2 1.9-1.1-2.1-1.3-2 1.1zM587.2 314.2l2 1.2 2-1.1-2-1.2-2 1zM574.7 314.6l2.1 1.2 2-1.1-2.1-1.2-2 1.1zM579.9 315l2 1.2 2-1-2.1-1.3-2 1.1zM585 315.4l2 1.3 2-1.1-2-1.3-2 1.1zM572.5 315.9l2.1 1.2 2-1.1-2.1-1.3-2 1.2zM577.6 316.3l2.1 1.2 2-1.1-2.1-1.2-2 1zM582.8 316.7l2 1.2 2-1-2-1.3-2 1.1zM570.3 317.1l2.1 1.3 2-1.2-2.2-1.2-1.9 1.1zM564.2 317.8l1.4.9 2-1.1-1.5-.9-2 1.1zM575.4 317.6l2.1 1.2 2-1.1-2.1-1.3-2 1.2zM580.6 318l2 1.2 2-1.1-2.1-1.2-2 1zM568.1 318.4l2.1 1.2 2-1-2.2-1.3-1.9 1.1zM573.3 318.8l2 1.3 2-1.2-2.1-1.2-2 1.1zM561.3 319.5l1.4.9 2-1.1-1.5-.9-2 1.1zM578.4 319.3l2 1.2 2-1.1-2.1-1.3-2 1.2zM566 319.7l2 1.2 2-1.1-2.2-1.2-1.9 1zM571 320.1l2.1 1.2 2-1-2.1-1.3-2 1.1zM576.2 320.5l2 1.3 2-1.2-2.1-1.2-2 1.1zM563.7 321l2.1 1.2 2-1.1-2.2-1.3-1.9 1.2zM568.8 321.4l2.1 1.2 2-1.1-2.1-1.2-2 1zM574 321.8l2 1.2 2-1-2.1-1.3-2 1.1zM556.1 322.5l1.5.8 1.9-1-1.5-1-1.9 1.2zM561.5 322.2l2.1 1.3 2-1.2-2.2-1.2-1.9 1.1zM566.6 322.6l2.1 1.3 2-1.1-2.2-1.3-1.9 1.1zM559.3 323.5l2.1 1.2 2-1.1-2.2-1.2-1.9 1.1zM553.2 324.2l1.4.8 2-1-1.5-1-2 1.2zM564.4 324l2.1 1.1 2-1-2.1-1.3-2 1.1zM569.5 324.4l2.1 1.2 2-1.1-2.1-1.3-2 1.2zM557.1 324.8l2.1 1.2 2-1.1-2.2-1.2-1.9 1zM574.7 324.8l2 1.2 21.8-12.6-2-1.2-21.8 12.6zM562.2 325.2l2.1 1.2 2-1-2.1-1.3-2 1.1zM567.3 325.6l2.1 1.3 2-1.2-2.1-1.2-2 1.1zM554.9 326l2 1.3 2-1.1-2-1.3-2 1.2zM572.5 326l2 1.3 2-1.1-2.1-1.3-2 1.2zM560 326.5l2.1 1.2 2-1.1-2.1-1.2-2 1zM565.1 326.9l2.1 1.2 2-1-2.1-1.3-2 1.1zM570.3 327.3l2 1.2 2-1-2.1-1.3-2 1.1zM557.8 327.8l2.1 1.2 2-1.1-2.2-1.3-1.9 1.1zM563 328.2l2 1.2 2-1.1-2.1-1.2-2 1zM568 328.6l2.1 1.2 2-1.1-2.1-1.2-2 1.1zM560.7 329.4l2.1 1.3 2-1.1-2.1-1.3-2 1.1zM565.9 329.9l2 1.2 2-1.1-2.1-1.3-2 1.2zM563.6 331.1l2.1 1.3 2-1.2-2.1-1.2-2 1.1zM584.3 312.5l2 1.2 2-1.1-2.1-1.2-2 1zM571.8 323l2 1.3 2-1.1-2.1-1.2-2 1zM601.1 309.5l2.1 1.2 2-1-2.2-1.3-1.9 1.1zM603.3 308.2l2.1 1.3 2-1.2-2.1-1.2-2 1.1z" fill="#E6E7EC"/><g><path d="M587.4 322.3c-.7.4-.7 1 0 1.4l4.4 2.6c.7.4 1.8.4 2.4 0l6-3.4c.6-.4.7-1 0-1.4l-4.4-2.6c-.6-.4-1.8-.4-2.4 0l-6 3.4z" fill="#ADADAD"/></g><g><path d="M587.4 322.6c-.7.3-.7 1 0 1.4l4.4 2.5c.7.4 1.8.4 2.4 0l6-3.4c.6-.4.7-1 0-1.5l-4.4-2.5c-.6-.4-1.8-.4-2.4 0l-6 3.5z" fill="#C3C5C5"/></g><g><path d="M552.3 323.7l-.1-29.1-1.1-.7v29.2c0 .3.2.5.4.6l1 .7c-.1-.1-.2-.3-.2-.7z" fill="#8FEDFF"/><path d="M552.2 294.6l-1.1-.7v-4l1 .7v4z" fill="#8FEDFF"/><path d="M594.8 270l-42.6 24.6v29.1c0 .7.6 1 1.1.6l40.5-23.3c.6-.4 1-1.2 1-1.9V270z" fill="#C5F9FF"/><path d="M593.7 265.4c.6-.3 1 0 1 .6v4l-42.5 24.6v-4c0-.7.4-1.5 1-1.8l40.5-23.4z" fill="#70D8E5"/><path d="M594 265.3h.5l-1.2-.6h-.1-.1v-.1h-.1-.2l-.2.2L552 288l-.2.1v.1h-.1v.1h-.1v.1l-.2.1v.2l-.1.1v.1h-.1v.2h-.1V289.6l-.1.1v.4l1 .6v-.2a1 1 0 01.2-.3v-.3l.2-.2.1-.3.2-.2.2-.2.2-.1 40.5-23.4h.2z" fill="#8FEDFF"/><path d="M554.9 291.5c.5-.3 1-1 1-1.7 0-.6-.5-.9-1-.5-.6.3-1 1-1 1.7 0 .6.4.8 1 .5zM557.9 289.8c.5-.3 1-1 1-1.7 0-.6-.5-.9-1-.6-.6.4-1 1.1-1 1.7 0 .7.4 1 1 .6zM560.8 288.1c.5-.3 1-1 1-1.7 0-.6-.5-.9-1-.6-.6.3-1 1.1-1 1.7 0 .7.4 1 1 .6z" fill="#C5F9FF"/></g><g><path d="M591 294.8l-44.5 25.8 30.3 17.5 44.5-25.9-30.3-17.4z" fill="#FFF" opacity=".3"/><path d="M591.3 289L545 316l31.5 18 46.2-26.8-31.4-18.1z" fill="#FFF" opacity=".3"/><path d="M591.5 283.3l-48 28 32.7 18.8 48-27.9-32.7-18.9z" fill="#FFF" opacity=".2"/><path d="M591.8 277.6l-49.7 29L576 326l49.7-29-33.9-19.5z" fill="#FFF" opacity=".1"/><path d="M592.1 272l-51.5 29.8 35 20.3 51.5-30-35-20.2z" fill="#FFF" opacity=".1"/><path d="M592.4 266.2l-53.3 31 36.3 20.9 53.2-31-36.2-20.9z" fill="#FFF" opacity=".1"/></g><g><path d="M592.1 275.2v2.7l-37.7 21.8V297l37.7-21.8z" fill="#33B3A0"/></g><g><path d="M592.1 281.2v2.7l-37.7 21.8V303l37.7-21.8z" fill="#33B3A0"/></g><g><path d="M592.1 289.2v2.7l-37.7 21.8V311l37.7-21.8z" fill="#33B3A0"/></g><g><path d="M592.1 295.2v2.7l-37.7 21.8V317l37.7-21.8z" fill="#33B3A0"/></g><g opacity=".1"><path d="M618.6 335.1c4.5 2.6 4.5 6.7 0 9.3a17.6 17.6 0 01-16 0c-4.4-2.6-4.4-6.7 0-9.3a17.6 17.6 0 0116 0z" opacity=".1"/></g><g><path d="M607.4 293.7s-.3-1.6-.5-1.9c-.3-.3-1.1-1.5-2.3-1.5-.7 0-.2.6.5 1.3.3.3.6.4.6 1.2 0 .5.2 1.3.4 1.6.2.4 1.3-.7 1.3-.7z" fill="#EFB185"/><path d="M606 294.4c-.1-.4-.3-1.2-.6-1.5-.5-.5 0-1-.3-1.3-.6-.6-1-1-.8-1.3.4.5 1.1.2 1.7 1.6.2.5.5 1.8.5 2.4-.3.1-.4.2-.5 0z" fill="#E6A376"/><path d="M618.4 299.6s.1 2-2.5 1.6c-2.7-.3-7.5-1.6-8.2-2.8-.8-1.1-1.8-4.3-1.8-4.3s1.3.2 1.7-.8l2.5 3.8s8.2 1 8.3 2.5z" fill="#CACE7A"/><path d="M606.5 294.2l-1.6-1.7c-.3-.4-.4-.9-.2-.9 0 0 1.2 1.3 1.5.8.2-.2.2 1.6.3 1.8z" fill="#EFB185"/><path d="M611.3 339.6s1 1.3-.3 1.7c-1.2.3-.8-.4-3.5.2-2.6.7-2.3-.8-2.2-1.1 0-.3 1.2-.7 1.8-.9l2.8-.6 1.4.2v.4zM613 335.7s-1 .1-.8.7c.2.6 1.4 1.5 1.5 1.9.2.3 1.1 1.4 1.4 1.5.6.1 1.1 0 1-1.4 0-1.5-1.8-2.8-3.2-2.7z" fill="#111114"/><path d="M617.3 310.1s2 3 .6 7.8c0 0-2.1 7.4-1.8 8.9.4 1.4 2 3.2.9 8l-.9 3.4c0 .8-1.4.9-1.6 0-.4-1.8 0-4.6-.3-6-1-4.6-1.5-7-1.2-10 .3-3 0-10 0-10s3.5.3 4.3-2z" fill="#EFB185"/><path d="M615 312s1.8 3 0 7.7c0 0-2.8 7.2-2.6 8.7.3 1.5 1.5 2.4.1 8 0 0-1.1 2.6-1.2 3.4-.1 1.2-1.3 1.3-1.5.5-.3-1.9.3-5.3.1-6.7-.5-4.6-.7-7-.1-10 .5-3.1.8-10 .8-10s3.5.6 4.5-1.7z" fill="#EFB185"/><path d="M610.2 301.8s5.5-5.4 7.4-3.8c0 0 1.6 1.3 1 5.6-.8 4.4-1.8 5.2-.8 7.9 0 0-2.1 4.3-7.6 2.3 0 0 .8-4.3.2-5.6-1.6-3.3-1.7-5-.4-6.2l.2-.2z" fill="#EBF2A5"/><path d="M617.9 311.5s2.9 3.3 1.2 8.8c-1.4 4.4-.7 7.2-.7 7.2s-5 4.1-9.6 2c0 0-.4-3 .1-8.6.5-5.7 1.3-7 1.3-7s4.3 1.8 7.7-2.4z" fill="#252625"/><path d="M609.4 339.2s.7 1.6 2 .4c0 0 .1 1.6-1 1.4-1.2-.2-1.6-1.4-1-1.8z" fill="#111114"/><path d="M600.3 305.9s-1.4 0-1.8-.6c-.5-.6-1.1-1.2-1.3-1.7-.1-.5 0-.7.4-.6.4.1 1.5.8 2.1 1.3.6.5.7.4.9.5.2.1.3.8-.4 1z" fill="#EFB185"/><path d="M600.6 304.8c-.2 0-.3 0-1-.5a7.4 7.4 0 00-2-1.3h-.2l1.4 1.4a4 4 0 002 1l-.2-.6z" fill="#EFB185"/><path d="M611.8 302.6c-.4-.5-1.3-1-2.5.1l-4.6 4.5-4.4-2.6s.4.8-.4 1.3c0 0 3.2 3.9 4.7 3.7 1.5-.1 8.7-4.9 7.2-7z" fill="#CACE7A"/><path d="M600.4 305l-1-1.6c-.3-.3-.7-.4-.7-.3 0 0 .8 1 .4 1.3l1.3.5zM611.9 298.5l-.2 2.5s2.3 1.3 3.9-.7l-.3-2.7s-1.5 1-3.4.9z" fill="#EFB185"/><path d="M612.8 291c-.8 0-1.7.1-2.7 1.4-1.2 1.4-1.3 2.8-.3 4.8 1.1 2.2-.6 3.7-1 4-.5.5 6.1 1.8 8.5-1.8 0 0 1.2-9-4.5-8.5z" fill="#4D2201"/><path d="M608.8 339.2s.6-.2.7-1.3c0 0 .8.5 2.3.2 0 0 0 2.2-.3 2.8 0 0-3-.5-2.7-1.7zM614.4 337s1 1.3 1.8.8v1.2c-.1.2-1 .5-1.4 0-.4-.3-.6-1.5-.4-2z" fill="#111114"/></g><g><path d="M597.1 298.7c0 6-9.6 20.2-15.6 20.2s-10.7-1.8-10.7-8c0-6 9.4-23.2 15.4-23.2s10.9 4.9 10.9 11z" fill="#33ADE3" opacity=".2"/><path d="M601.6 294.6l-2.2-1.2v-7l2 1.3.2 6.9z" fill="#B539DF"/><path d="M617.9 278.1h.2l.3-.1h.1l.2-.1H619.8c.2 0 .2.1.3.2l-2.1-1.3h-.2v-.1h-.4l-.2-.1h-.1-.1-.1-.2-.2-.1v.1h-.2l-.3.1-.2.1-.4.3-16 9.3 2.2 1.2 15.9-9.3a6.2 6.2 0 01.5-.3z" fill="#4D0169"/><path d="M617.4 278.4c2-1.1 3.5-.5 3.6 1.4 0 1.9-1.6 4.3-3.5 5.5l-16 9.3v-6.9l16-9.3z" fill="#6E0095"/><path d="M597.6 296l-2.1-1.3-.1-4.7 2.1 1.3v4.6z" fill="#452617"/><path d="M597.5 291.3l-2.1-1.3 4-2.3 2.1 1.2-4 2.4z" fill="#414042"/><path d="M601.5 289v4.6l-4 2.3v-4.6l4-2.4z" fill="#303030"/><path d="M595 299.6l.2-.5v-.2l.1-1v-.2-1c0-3.5-1.2-6-3.2-7.2l-2.1-1.2c2 1.2 3.2 3.6 3.2 7.2v1.1l-.1 1v.3l-.1.4v.3l-.2.5v.2a17 17 0 01-.6 2.3l-.4 1v.2l-.4.8v.1l-.5.9v.2l-.4.7-.1.2-.5.8v.1l-.5.8-.1.2-.6.8v.2l-.7.8v.1l-.9 1-.1.1-.5.6-.6.6-.2.2-.7.7h-.1l-.8.7-.2.1-.8.6-.1.1-1 .6-.6.4h-.2a6.2 6.2 0 01-.8.4l-.4.2h-.2l-.6.2h-.3l-.2.1-.5.1-.7.1h-.8-.1a4 4 0 01-.5 0l-.2-.1-.5-.1-.6-.2h-.1l-.4-.3h-.2l2.2 1.2h.1l.4.3h.2a4.2 4.2 0 00.5.2l.5.1h.2l.5.1h1.7a7.4 7.4 0 00.6-.2h.3l.7-.3h.1l.5-.2h.2l.5-.3.2-.1.7-.4.9-.5.1-.1.9-.6.1-.2.8-.6.1-.1.8-.7.1-.1.6-.6.5-.6.1-.1.9-1v-.2l.7-.8v-.1l.6-.9.1-.2a27.8 27.8 0 00.5-.8l.5-.9.1-.2.4-.6v-.2h.1l.4-1 .4-.8v-.2l.4-1a18.3 18.3 0 00.4-1.1v-.1l.2-1.1v-.1-.2l.2-.4v-.3z" fill="#D67912"/><g><path d="M585.3 286l.7-.3h.2l.6-.3h.2l.8-.3.4-.1h.2l.7-.2H592a6.3 6.3 0 01.8.2l.6.3h.2l.5.3h.2l-2.1-1.2h-.1l-.6-.3h-.1-.1l-.6-.3a7.6 7.6 0 00-.9-.2H589v-.1h-.1-.6-.2-.1-.3-.7l-.1.1-.6.1h-.2l-.4.2-.9.2h-.1l-.6.3h-.1l-.2.1a20.5 20.5 0 00-2.5 1.4h-.2a12.7 12.7 0 00-.8.6l-.4.3-.2.2c-.2 0-.3.2-.5.3l-.2.2-.5.4-.1.1a17.6 17.6 0 00-.8.7l-.4.4v.1l-.8.8-.7.8h-.1v.1l-1.1 1.3-.1.1-.8 1.1-.1.1-.8 1.2-.2.2-.5 1h-.1v.1a36 36 0 00-.7 1.2v.2l-.5.8v.2l-.1.1-.5 1.1-.1.2-.4 1v.1l-.1.2-.5 1.2a24.6 24.6 0 00-.4 1.4v.2l-.1.4-.2.5v.3l-.1.3v.2l-.2.5v.4l-.1.6v.7a10.2 10.2 0 00-.2.8v1.6c0 4.5 1.6 7.7 4.2 9.2l2.1 1.2c-2.6-1.5-4.2-4.6-4.2-9.2v-.8-.2-.5l.1-.3v-.6-.2l.1-.4.1-.6.1-.4.1-.5.1-.5.1-.4.1-.5.1-.3.1-.3.4-1.3.4-1.3.2-.3c0-.3.2-.6.4-1v-.1l.5-1.1.2-.3.4-.9.2-.2.5-1c0-.2.1-.2.2-.3l.5-.9.2-.3.7-1 .1-.2.8-1.1.1-.1 1-1.3.2-.2.7-.7.8-.8.5-.5v-.1l.7-.6.2-.1.5-.4.2-.2.4-.4.3-.1.4-.4.3-.1.4-.3.2-.2.7-.4a13.5 13.5 0 011.2-.6z" fill="#ED8001"/></g><g><path d="M584.1 286.7c8-4.6 14.4-1 14.4 8.2 0 9-6.4 20.2-14.3 24.8-8 4.5-14.4.9-14.4-8.3 0-9 6.4-20.1 14.3-24.7zm0 29.3a24.5 24.5 0 0011.2-19.3c0-7-5-10-11.2-6.4a24.6 24.6 0 00-11.1 19.3c0 7.1 5 10 11.2 6.4z" fill="#FACD00"/></g></g><g><path d="M599.7 345.7c6 3.5 16 3.5 22 0s6-9.2 0-12.7c-6.2-3.5-16-3.5-22 0-6.1 3.5-6 9.2 0 12.7z" fill="#FCFDFD" opacity=".8"/><path d="M597.8 340.2c7.1 4 18.7 4 25.8 0 7.1-4 7.1-10.4 0-14.3-7.2-4-18.8-4-25.9 0-7.1 4-7 10.3 0 14.3z" fill="#FCFDFD" opacity=".7"/><path d="M595.9 334.7a35 35 0 0029.7 0c8.1-4.4 8-11.6-.1-16a35 35 0 00-29.7 0c-8.2 4.4-8.2 11.6 0 16z" fill="#FCFDFD" opacity=".5"/><path d="M594 329.2a40.5 40.5 0 0033.5 0c9.2-4.9 9.2-12.8-.1-17.6a40.5 40.5 0 00-33.6 0c-9.2 4.8-9.2 12.7.1 17.6z" fill="#FCFDFD" opacity=".4"/><path d="M592 323.6a46.1 46.1 0 0037.4 0c10.3-5.3 10.3-13.8 0-19.1a46 46 0 00-37.5 0c-10.3 5.3-10.3 13.9.1 19.1z" fill="#FCFDFD" opacity=".3"/><path d="M590 318.1c11.5 5.8 30 5.8 41.4 0 11.3-5.7 11.3-15-.2-20.8a51.7 51.7 0 00-41.3 0c-11.3 5.8-11.3 15 .2 20.8z" fill="#FCFDFD" opacity=".1"/></g><g opacity=".8"><path d="M581.7 300.4a8.8 8.8 0 11-17.7 0 8.8 8.8 0 0117.7 0z" fill="#FFF" opacity=".1"/><path d="M580 300.5a7.2 7.2 0 11-14.3 0 7.2 7.2 0 0114.3 0z" fill="#FFF" opacity=".1"/><path d="M578.4 300.6a5.6 5.6 0 11-11 0 5.6 5.6 0 0111 0z" fill="#FFF" opacity=".1"/><path d="M576.8 300.8a4 4 0 11-7.9 0 4 4 0 017.9 0z" fill="#FFF" opacity=".2"/><path d="M575.1 300.9a2.3 2.3 0 11-4.5 0 2.3 2.3 0 014.5 0z" fill="#FFF" opacity=".3"/><path d="M573.5 301c0 .3-.3.6-.6.6a.7.7 0 010-1.3c.3 0 .6.3.6.7z" fill="#FFF" opacity=".3"/></g></svg>